<svg xmlns="http://www.w3.org/2000/svg" xmlns:xlink="http://www.w3.org/1999/xlink"  fill="#ffffff33" version="1.1" x="0px" y="0px" viewBox="0 2 128 128" style="enable-background:new 0 0 128 128;" xml:space="preserve"><g><path d="M74.262,119.862c0.063-0.121,0.121-0.245,0.176-0.371c0.059-0.135,0.115-0.272,0.166-0.412   c0.04-0.11,0.078-0.221,0.113-0.334c0.051-0.166,0.094-0.336,0.134-0.509c0.023-0.102,0.048-0.204,0.067-0.309   c0.035-0.192,0.061-0.39,0.083-0.591c0.011-0.098,0.026-0.194,0.033-0.294c0.017-0.221,0.022-0.449,0.024-0.68   c0.001-0.089,0.007-0.175,0.005-0.266c-0.006-0.324-0.024-0.656-0.058-0.999c-0.207-2.071-1.629-5.864-2.816-7.516   c-0.207-0.288-0.428-0.6-0.661-0.934C62.792,94.177,46.032,63.561,60.788,28.33c-2.282-0.242-4.606-0.425-6.956-0.529   c-1.364,5.536-2.936,13.76-1.839,23.082c0.064,0.549-0.328,1.046-0.876,1.11C51.077,51.998,51.038,52,50.999,52   c-0.5,0-0.933-0.374-0.992-0.883c-1.109-9.416,0.408-17.712,1.785-23.395c-2.234-0.05-4.482-0.019-6.725,0.128   c-0.023,0.002-0.044,0.002-0.067,0.004V47c0,0.553-0.447,1-1,1s-1-0.447-1-1V27.964c-1.578,0.075-3.077,0.119-4.537,0.161   c-0.821,0.023-1.62,0.046-2.402,0.074c1.07,5.238,2.059,13.343,0.933,22.918C36.934,51.626,36.501,52,36.001,52   c-0.039,0-0.078-0.002-0.118-0.007c-0.548-0.064-0.94-0.562-0.876-1.11c1.118-9.499,0.096-17.514-0.968-22.593   c-2.376,0.13-4.614,0.362-6.825,0.87c3.179,6.08,4.093,14.577,2.779,25.954c-4.095,35.498,2.465,58.382,19.499,68.016   c2.019,1.142,4.515,1.858,6.514,1.87l0.693,0.005c2.106,0.017,4.821,0.037,7.513-0.254c0.003,0,0.005-0.002,0.009-0.003   c0.956-0.104,1.844-0.242,2.67-0.411c0.109-0.022,0.216-0.048,0.324-0.072c0.272-0.06,0.538-0.123,0.796-0.19   c0.182-0.048,0.362-0.1,0.541-0.153c0.167-0.049,0.332-0.1,0.493-0.152c0.235-0.078,0.467-0.161,0.693-0.248   c0.093-0.036,0.185-0.071,0.275-0.108c0.27-0.111,0.533-0.229,0.788-0.356c0.044-0.022,0.088-0.043,0.131-0.065   c0.283-0.146,0.557-0.302,0.818-0.469c0.016-0.01,0.032-0.02,0.048-0.03c0.278-0.181,0.543-0.374,0.793-0.581   c0.002-0.002,0.004-0.003,0.006-0.005c0.255-0.212,0.494-0.439,0.714-0.681c0.142-0.156,0.269-0.32,0.394-0.486   c0.04-0.053,0.082-0.104,0.12-0.158c0.096-0.136,0.182-0.279,0.266-0.422C74.151,120.062,74.209,119.964,74.262,119.862z"/><path d="M44.937,25.854c9.505-0.62,19.035,0.712,27.222,2.011c3.489,0.552,7.188-1.707,8.805-5.374   c1.808-4.102,0.467-8.479-3.586-11.708C68.311,3.559,56.995,3,42,3C26.027,3,15.474,6.962,8.788,15.47   c-2.625,3.34-2.277,10.307,0.69,13.804c2.354,2.775,5.827,3.019,10.042,0.702c6.354-3.493,11.884-3.65,18.886-3.85   C40.472,26.067,42.607,26.006,44.937,25.854z"/><path d="M101.596,41.898c-0.996,1.501-5.455,8.906-4.599,20.025c0.042,0.551-0.37,1.032-0.92,1.074   C96.051,62.999,96.024,63,95.999,63c-0.518,0-0.956-0.398-0.996-0.923c-0.786-10.218,2.586-17.366,4.281-20.253   c-2.658-0.06-5.355-0.015-8.177,0.125c0.42,4.426,0.553,12.18-0.11,20.134C90.953,62.605,90.516,63,90.001,63   c-0.027,0-0.056-0.001-0.084-0.004c-0.551-0.045-0.959-0.528-0.913-1.079c0.656-7.881,0.523-15.537,0.106-19.846   c-3.172,0.219-6.091,0.593-8.888,1.116c3.023,5.655,4.305,12.001,3.776,18.89C83.957,62.602,83.519,63,83.001,63   c-0.025,0-0.052-0.001-0.078-0.003c-0.55-0.042-0.962-0.523-0.92-1.074c0.517-6.718-0.771-12.883-3.821-18.328   c-1.989,0.428-3.947,0.926-5.926,1.495c12.463,18.649,2.578,39.722-4.778,51.014c2.138,4.053,4.185,7.24,5.701,9.417   c0.215,0.306,0.428,0.611,0.632,0.894c1.395,1.938,2.941,6.061,3.184,8.484c0.042,0.423,0.062,0.833,0.066,1.235   c0.002,0.188-0.009,0.368-0.015,0.551c-0.007,0.198-0.012,0.396-0.028,0.589c-0.02,0.238-0.052,0.468-0.086,0.697   c-0.018,0.118-0.035,0.236-0.057,0.352c-0.049,0.264-0.109,0.522-0.178,0.775c-0.017,0.061-0.035,0.122-0.054,0.183   c-0.446,1.506-1.258,2.793-2.435,3.859c-0.071,0.064-0.137,0.133-0.21,0.195c-0.046,0.039-0.084,0.084-0.132,0.123   c4.235-1.543,9.096-4.304,14.546-8.268c0.224-0.163,22.285-16.816,14.614-58.958c-0.213-0.736-1.707-6.708,2.703-14.06   C104.343,42.056,102.967,41.959,101.596,41.898z"/><path d="M119.293,27.707c-6.612-6.612-19.562-9.777-35.577-8.746c-0.015,1.575-0.36,3.059-0.923,4.335   c-1.976,4.483-6.591,7.239-10.947,6.542c-2.852-0.453-5.874-0.905-8.993-1.28c-2.107,4.926-3.563,9.757-4.511,14.465   c1.138,1.342,3.55,3.293,7.342,2.027c8.154-2.718,15.053-4.51,24.195-5.044c0.022-0.001,0.042-0.004,0.063-0.005   c8.117-0.468,15.056-0.167,23.2,1.008c3.176,0.46,5.594-1.96,6.803-4.376C121.32,33.89,121.651,30.065,119.293,27.707z"/></g></svg>