<svg xmlns="http://www.w3.org/2000/svg" xmlns:xlink="http://www.w3.org/1999/xlink" height="300px" width="300px" fill="#ffffff" version="1.1" x="0px" y="0px" viewBox="0 0 100 100" style="enable-background:new 0 0 100 100;" xml:space="preserve"><style type="text/css">
	.st0{fill:none;}
</style><path d="M91.9,24.4c-0.1-0.1-0.2-0.2-0.2-0.3l0,0c-0.5-0.7-1.1-1.4-1.8-2.1c-0.9-0.9-1.8-1.8-2.9-2.7c-3.2-2.8-7.2-5.4-11.6-7.7l0,0  c-0.1,0-0.1-0.1-0.2-0.1C67.5,7.7,59.7,5.5,53,5.5c-4.3,0-9.6,0.9-15.2,2.7c-5.2,1.6-10.6,3.9-15.6,6.6c-5,2.7-9.2,5.6-12.2,8.4  c-1.6,1.5-2.8,3-3.7,4.3C5.5,29,5,30.4,5,31.7c0,1.3,0.5,2.5,1.4,3.7c0.1,0.1,0.1,0.2,0.2,0.3c0.5,0.6,1.2,1.2,2,1.8  c1.1,0.8,2.5,1.6,4.2,2.4c1,0.4,2,0.9,3.1,1.3c0.1,0,0.2,0.1,0.4,0.1c0.2,0.1,0.5,0.2,0.7,0.3c0.1,0,0.1,0,0.2,0.1  c0.1,0,0.2,0.1,0.3,0.1c0.1,0,0.2,0.1,0.2,0.1c0.1,0,0.1,0,0.2,0.1c0.1,0,0.2,0.1,0.4,0.1c0.1,0,0.1,0,0.2,0.1  c0.1,0,0.3,0.1,0.4,0.1c2.7,0.8,5.8,1.6,9.2,2.3c0.5,0.1,1.1,0.2,1.6,0.3c0.1,0,0.3,0.1,0.4,0.1c5.3,1,11.1,1.7,16.4,2.1  c0.5,3.2-0.3,8.9-1,13.2c-0.9,5.3-2,9.9-2.4,11.1c-0.5,1.5-2,3.5-3.6,5.7c-2.9,3.8-6.2,8.2-5.2,11.8c0.3,0.9,0.8,1.7,1.5,2.4  c0.8,0.7,1.9,1.4,3.2,1.9c3,1.2,7.1,1.8,12,1.8c2.6,0,5.5-0.2,8.6-0.5c1.3-0.1,3-0.4,4.5-0.9c1.8-0.7,3-1.7,3.6-3  c2.1-4.9-0.4-9.4-2.9-13.8c-1.5-2.6-3-5.3-3.4-8c-0.2-1-0.3-2-0.5-2.9c-1.1-6.4-2-11.5-0.4-19c5.1-0.6,14.5-1.9,22.3-4.6  C90.9,39,95,35.6,95,31.7C95,29.5,94,27.1,91.9,24.4z M30.4,43.7c-0.2,0-0.3-0.1-0.5-0.1c-5.3-1-9.9-2.2-13.7-3.5  C12,38.5,9,36.8,7.4,35c-0.2-0.2-0.3-0.3-0.4-0.5c2.3-3.7,6.4-6,10.9-6c3.4,0,6.6,1.3,9.1,3.8c2.4,2.4,3.8,5.6,3.8,9.1  C30.6,42.1,30.5,42.9,30.4,43.7z M41.4,21.8c-1.4,0.8-3.3,1.3-5.3,1.3c-2,0-3.9-0.5-5.3-1.3c-1.5-0.9-2.3-2.1-2.3-3.3  c0-1.3,0.8-2.5,2.3-3.3c1.4-0.8,3.3-1.3,5.3-1.3c2,0,3.9,0.5,5.3,1.3c1.5,0.9,2.3,2.1,2.3,3.3C43.7,19.7,42.9,20.9,41.4,21.8z   M58.7,9.7c1.8,0,3.2,1.4,3.2,3.2s-1.4,3.2-3.2,3.2s-3.2-1.4-3.2-3.2S56.9,9.7,58.7,9.7z M60.4,36.7c-1.2,0.9-2.8,1.4-4.5,1.4  c-1.7,0-3.3-0.5-4.5-1.4c-1.2-1-1.9-2.2-1.9-3.6c0-1.4,0.7-2.6,1.9-3.6c1.2-0.9,2.8-1.4,4.5-1.4c1.7,0,3.3,0.5,4.5,1.4  c1.2,1,1.9,2.2,1.9,3.6C62.4,34.5,61.7,35.8,60.4,36.7z M87.6,27.5c-1.7,0.7-3.4,1-5.3,1c-3.1,0-6-1-8.3-2.7  c-2.2-1.8-3.5-4.2-3.5-6.7c0-2.6,1.4-5.1,3.7-6.9c0.2,0.1,0.5,0.2,0.7,0.4c6.7,3.4,12.5,7.9,15.9,12.2c0.1,0.1,0.2,0.3,0.3,0.4  C90.3,26.1,89,26.9,87.6,27.5z"/><path d="M30.2,44.6L30.2,44.6l-0.4-0.1C29.9,44.6,30,44.6,30.2,44.6z"/>

<animateTransform attributeName="transform" attributeType="XML" type="skewX" values="4;-4;4;-4;4;" additive="sum" repeatCount="indefinite" dur="3s" fill="freeze"/>
</svg>