<svg xmlns="http://www.w3.org/2000/svg" height="300px" width="300px" fill="#ffffff" data-name="Layer 1" viewBox="0 0 64 64" x="0px" y="0px">
<path d="M47,43c3.24-.05,8-.57,8-6,0-4.72-3.85-10-9-10a8.1,8.1,0,0,0-5.45,2.23c-.23-1.85-.49-3.33-.68-4.29l.57,0c.41,0,.82,0,1.21,0a3.52,3.52,0,0,0,2.53-.76A3,3,0,0,0,45,21.93C45,18.72,42.38,15,39,15s-6,3.72-6,6.93a3,3,0,0,0,.82,2.31c.91.87,2.29.79,3.74.72h.27a58.75,58.75,0,0,1,.94,6.38A10.6,10.6,0,0,0,37,37a5.35,5.35,0,0,0,1.69,4.26A22.63,22.63,0,0,1,35.46,51H34.32a26.42,26.42,0,0,1-5.56-5.9A32.71,32.71,0,0,1,23,27c3.24,0,8-.59,8-6,0-4.72-3.85-10-9-10s-9,5.28-9,10c0,5.42,4.78,5.94,8,6,.31,13,6.69,20.75,10.19,24H21.28C16.38,48.28,16,43,16,40.94l.44,0c.41,0,.82,0,1.21,0a3.52,3.52,0,0,0,2.53-.76A3,3,0,0,0,21,37.93C21,34.72,18.38,31,15,31s-6,3.72-6,6.93a3,3,0,0,0,.82,2.31c.91.87,2.29.79,3.74.72l.44,0c0,2.08.36,6.72,3.9,10.06H2v2H62V51H42.81A10.28,10.28,0,0,0,47,43Zm-9.19,8a25.28,25.28,0,0,0,2.78-8.66A13.83,13.83,0,0,0,45,43c-.07,1.95-.91,6.56-7.13,8Z"/>
        
        <animateTransform attributeName="transform" attributeType="XML" type="scale" values="1,0.9;1.1,0.8;1,0.9" additive="sum" repeatCount="indefinite" dur="3s" fill="freeze"/>
</svg>