<svg xmlns="http://www.w3.org/2000/svg" xmlns:xlink="http://www.w3.org/1999/xlink" height="300px" width="300px" fill="#FFFFFF" version="1.1" x="0px" y="0px" viewBox="0 0 10 10" enable-background="new 0 0 10 10" xml:space="preserve"><g><path d="M3.041,5.309c0,0.994,0.228,1.014,0.313,1.021C3.491,6.341,3.695,6.397,3.816,6.52c0.092,0.092,0.363,0.18,0.662,0.25   L4.49,6.91c0.02,0.273,0.01,1.053-0.277,1.381C3.97,8.566,3.888,8.867,3.985,9.119c0.056,0.145,0.224,0.396,0.723,0.453   c0.005,0,0.118,0.012,0.273,0.012c0.019,0,0.036,0,0.056,0s0.037,0,0.056,0l0,0c0.155,0,0.269-0.012,0.274-0.012   c0.498-0.058,0.667-0.309,0.722-0.453c0.097-0.252,0.015-0.553-0.228-0.828C5.576,7.967,5.556,7.193,5.573,6.915   c0.053-0.011,0.142-0.026,0.234-0.042c0.537-0.094,0.622-0.118,0.677-0.162c0.553-0.442,0.553-0.56,0.553-0.616   c0-0.018,0.005-0.085,0.01-0.149c0.031-0.398,0.041-0.62,0.003-0.724C7.039,5.192,7.028,5.112,7.02,5.048   C6.995,4.859,6.973,4.694,6.865,4.622C6.797,4.493,6.654,3.904,6.643,3.799c-0.008-0.08-0.09-0.743-0.125-0.922   C6.502,2.801,6.477,2.73,6.451,2.663C6.418,2.576,6.387,2.494,6.396,2.436c0.003-0.02,0.006-0.041,0.009-0.064   c0.016-0.115,0.052-0.384,0.1-0.451c0.011-0.016,0.025-0.03,0.043-0.048c0.096-0.092,0.183-0.204,0.102-0.46   C6.623,1.336,6.607,1.276,6.593,1.225C6.561,1.107,6.537,1.023,6.467,0.899c-0.107-0.188-0.465-0.383-0.536-0.42L5.916,0.471   L5.712,0.417L5.694,0.416c0,0-0.01,0-0.026,0c-0.224,0-0.957,0.035-1.158,0.479L4.175,1.313C4.083,1.387,3.782,1.644,3.72,1.88   C3.702,1.947,3.648,2.029,3.595,2.108C3.501,2.251,3.404,2.399,3.468,2.553c0.025,0.061,0.033,0.097,0.041,0.132   C3.515,2.705,3.52,2.728,3.528,2.752C3.524,2.758,3.519,2.764,3.515,2.769C3.468,2.828,3.396,2.917,3.3,3.071   C3.098,3.397,2.883,4.02,2.933,4.233C2.962,4.362,3.041,5.039,3.041,5.309z M5.625,8.498c0.16,0.182,0.223,0.371,0.17,0.508   C5.744,9.141,5.578,9.231,5.333,9.26c-0.001,0-0.129,0.014-0.293,0.01H5.037H5.034C4.87,9.273,4.742,9.26,4.742,9.26   C4.496,9.231,4.33,9.141,4.278,9.006C4.226,8.869,4.289,8.68,4.448,8.498c0.207-0.235,0.298-0.604,0.336-0.929   c0.089-0.051,0.271-0.124,0.495-0.047C5.316,7.859,5.408,8.252,5.625,8.498z M3.568,3.237c0.086-0.139,0.15-0.219,0.192-0.271   c0.061-0.076,0.136-0.17,0.072-0.297c-0.007-0.014-0.01-0.026-0.017-0.055C3.807,2.575,3.795,2.522,3.764,2.445   c0.009-0.035,0.06-0.112,0.095-0.164C3.921,2.186,3.993,2.077,4.023,1.96c0.029-0.111,0.229-0.307,0.36-0.41l0.015-0.012   l0.385-0.481l0.01-0.021C4.875,0.825,5.304,0.73,5.667,0.73L5.8,0.765c0.143,0.078,0.35,0.217,0.393,0.29   C6.244,1.145,6.26,1.199,6.29,1.309C6.305,1.36,6.322,1.426,6.348,1.507C6.377,1.6,6.374,1.603,6.329,1.646   C6.305,1.67,6.274,1.699,6.246,1.74C6.162,1.86,6.127,2.077,6.094,2.329C6.09,2.352,6.087,2.373,6.084,2.392   c-0.02,0.138,0.029,0.268,0.072,0.382c0.021,0.059,0.043,0.114,0.053,0.165c0.032,0.16,0.109,0.789,0.121,0.896   c0.008,0.064,0.06,0.303,0.115,0.514C6.547,4.729,6.607,4.832,6.67,4.874C6.686,4.922,6.7,5.028,6.709,5.09   c0.012,0.096,0.023,0.178,0.045,0.236c0.021,0.078-0.009,0.454-0.02,0.595c-0.006,0.066-0.01,0.111-0.011,0.142   c-0.05,0.07-0.257,0.258-0.423,0.393C6.224,6.48,5.919,6.533,5.753,6.563C5.629,6.584,5.532,6.602,5.479,6.613   c-0.004,0-0.009,0-0.014,0c-0.298,0-1.304-0.211-1.427-0.316C3.841,6.1,3.565,6.04,3.431,6.022C3.392,5.926,3.355,5.64,3.355,5.309   c0-0.282-0.078-0.983-0.115-1.144C3.224,4.063,3.374,3.549,3.568,3.237z"/><path d="M4.227,3.314C4.35,3.299,4.457,2.98,4.509,2.885c0.105-0.238,0.387-0.223,0.545-0.43c0.229-0.271-0.193-0.573-0.018-0.86   C4.703,1.516,4.492,1.834,4.492,1.834C4.315,2.137,4.104,2.232,4.174,2.566c0.053,0.207,0.035,0.271-0.035,0.446   C4.104,3.107,3.98,3.362,4.227,3.314z"/><path d="M3.644,4.953c-0.031,0.15-0.016,0.255,0.193,0.18C4.062,5.059,4.033,4.595,4.062,4.4c0.045-0.285-0.029-0.524-0.225-0.719   L3.734,3.667C3.718,3.802,3.658,3.906,3.628,4.041c-0.045,0.164,0,0.284,0.045,0.464C3.703,4.685,3.689,4.774,3.644,4.953z"/><path d="M5.282,4.534c0-0.224-0.19-0.374-0.207-0.613C5.041,3.502,4.591,3.592,4.211,3.592L4.16,3.606   c0,0.33,0.587,0.419,0.587,0.749c0,0.284-0.241,0.538-0.259,0.808C4.47,5.327,4.436,5.747,4.643,5.762   c0.138,0,0.294-0.165,0.328-0.27c0.034-0.135-0.052-0.18-0.069-0.299C4.884,4.953,5.282,4.819,5.282,4.534z"/><path d="M6.025,5.347C5.972,5.277,5.972,5.208,5.902,5.139c-0.104-0.122-0.33-0.417-0.33-0.417   c-0.034,0.226-0.33,0.348-0.313,0.573c0.018,0.052,0.139,0.174,0.156,0.261c0.018,0.069,0.018,0.156,0.018,0.243   c0,0.174-0.087,0.434,0.07,0.539C5.711,6.477,5.885,6.32,5.972,6.164C6.008,6.111,6.025,6.008,6.06,5.955   c0.069-0.069,0.174-0.018,0.226-0.069c0.156-0.122,0.087-0.278,0-0.365C6.198,5.451,6.094,5.451,6.025,5.347z"/><path d="M5.375,3.039c-0.09,0.066-0.496,0.184-0.512,0.2C4.847,3.373,5.345,3.725,5.419,3.825C5.571,4.01,5.36,4.193,5.496,4.361   c0.061,0.066,0.211,0.101,0.285,0.167c0.121,0.134,0.121,0.201,0.211,0c0.106-0.251,0-0.401-0.06-0.636   c-0.105-0.419,0-0.854-0.091-1.289C5.812,2.47,5.525,2.47,5.525,2.47C5.662,2.737,5.571,2.905,5.375,3.039z"/><path d="M5.365,1.34C5.423,1.415,5.423,1.55,5.41,1.654C5.378,1.894,5.29,2.059,5.378,2.313c0.105-0.075,0.135-0.149,0.27-0.194   c0.12-0.045,0.195,0,0.27-0.135c0.045-0.09,0.016-0.194,0.061-0.284c0.015-0.06,0.12-0.135,0.135-0.194   c0-0.15-0.39-0.329-0.51-0.419C5.337,0.839,5.169,1.07,5.169,1.07C5.065,1.19,5.304,1.25,5.365,1.34z"/><path d="M3.714,5.899C3.966,6.043,4.236,6.114,4.505,6.15C4.63,5.936,4.2,5.558,4.146,5.343C4.146,5.343,3.32,5.684,3.714,5.899z"/>
<animateTransform attributeType="xml" attributeName="transform" type="rotate" values="-3, 60, 80;3, 60,80;-3,60,80" dur="3s" additive="sum" repeatCount="indefinite" />
</g></svg>