<svg xmlns="http://www.w3.org/2000/svg" width="800" height="600"><path d="M365,343L433,234L328,274Z" fill="rgb(150,85,15)" stroke="rgb(150,85,15)" stroke-width="1.51"/><path d="M365,343L452,319L433,234Z" fill="rgb(152,88,1)" stroke="rgb(152,88,1)" stroke-width="1.51"/><path d="M433,234L375,168L328,274Z" fill="rgb(145,77,30)" stroke="rgb(145,77,30)" stroke-width="1.51"/><path d="M433,234L419,156L375,168Z" fill="rgb(142,74,34)" stroke="rgb(142,74,34)" stroke-width="1.51"/><path d="M548,113L419,156L433,234Z" fill="rgb(138,70,39)" stroke="rgb(138,70,39)" stroke-width="1.51"/><path d="M328,274L224,338L365,343Z" fill="rgb(146,79,26)" stroke="rgb(146,79,26)" stroke-width="1.51"/><path d="M216,141L237,272L328,274Z" fill="rgb(137,66,46)" stroke="rgb(137,66,46)" stroke-width="1.51"/><path d="M237,272L224,338L328,274Z" fill="rgb(143,75,34)" stroke="rgb(143,75,34)" stroke-width="1.51"/><path d="M365,343L382,464L452,319Z" fill="rgb(148,86,3)" stroke="rgb(148,86,3)" stroke-width="1.51"/><path d="M211,414L382,464L365,343Z" fill="rgb(141,77,25)" stroke="rgb(141,77,25)" stroke-width="1.51"/><path d="M452,319L587,212L433,234Z" fill="rgb(145,81,20)" stroke="rgb(145,81,20)" stroke-width="1.51"/><path d="M626,329L587,212L452,319Z" fill="rgb(145,82,11)" stroke="rgb(145,82,11)" stroke-width="1.51"/><path d="M472,481L555,415L452,319Z" fill="rgb(143,82,8)" stroke="rgb(143,82,8)" stroke-width="1.51"/><path d="M555,415L579,385L452,319Z" fill="rgb(143,83,7)" stroke="rgb(143,83,7)" stroke-width="1.51"/><path d="M382,464L472,481L452,319Z" fill="rgb(144,83,6)" stroke="rgb(144,83,6)" stroke-width="1.51"/><path d="M224,338L211,414L365,343Z" fill="rgb(140,74,33)" stroke="rgb(140,74,33)" stroke-width="1.51"/><path d="M237,272L182,349L224,338Z" fill="rgb(139,70,40)" stroke="rgb(139,70,40)" stroke-width="1.51"/><path d="M182,349L211,414L224,338Z" fill="rgb(135,67,41)" stroke="rgb(135,67,41)" stroke-width="1.51"/><path d="M375,168L216,141L328,274Z" fill="rgb(136,66,46)" stroke="rgb(136,66,46)" stroke-width="1.51"/><path d="M237,272L121,264L182,349Z" fill="rgb(137,67,44)" stroke="rgb(137,67,44)" stroke-width="1.51"/><path d="M349,36L216,141L375,168Z" fill="rgb(128,56,57)" stroke="rgb(128,56,57)" stroke-width="1.51"/><path d="M587,212L548,113L433,234Z" fill="rgb(137,71,35)" stroke="rgb(137,71,35)" stroke-width="1.51"/><path d="M419,156L349,36L375,168Z" fill="rgb(134,63,48)" stroke="rgb(134,63,48)" stroke-width="1.51"/><path d="M681,286L626,329L743,336Z" fill="rgb(139,80,9)" stroke="rgb(139,80,9)" stroke-width="1.51"/><path d="M579,385L626,329L452,319Z" fill="rgb(144,83,7)" stroke="rgb(144,83,7)" stroke-width="1.51"/><path d="M587,212L612,184L548,113Z" fill="rgb(133,67,39)" stroke="rgb(133,67,39)" stroke-width="1.51"/><path d="M681,286L612,184L587,212Z" fill="rgb(136,73,28)" stroke="rgb(136,73,28)" stroke-width="1.51"/><path d="M548,113L441,38L419,156Z" fill="rgb(131,61,49)" stroke="rgb(131,61,49)" stroke-width="1.51"/><path d="M441,38L349,36L419,156Z" fill="rgb(131,59,53)" stroke="rgb(131,59,53)" stroke-width="1.51"/><path d="M382,464L444,555L472,481Z" fill="rgb(140,80,9)" stroke="rgb(140,80,9)" stroke-width="1.51"/><path d="M235,583L376,543L382,464Z" fill="rgb(134,74,25)" stroke="rgb(134,74,25)" stroke-width="1.51"/><path d="M216,141L121,264L237,272Z" fill="rgb(130,58,54)" stroke="rgb(130,58,54)" stroke-width="1.51"/><path d="M182,349L131,469L211,414Z" fill="rgb(130,63,45)" stroke="rgb(130,63,45)" stroke-width="1.51"/><path d="M472,481L533,554L555,415Z" fill="rgb(136,78,11)" stroke="rgb(136,78,11)" stroke-width="1.51"/><path d="M681,443L626,329L579,385Z" fill="rgb(138,79,10)" stroke="rgb(138,79,10)" stroke-width="1.51"/><path d="M376,543L444,555L382,464Z" fill="rgb(140,81,9)" stroke="rgb(140,81,9)" stroke-width="1.51"/><path d="M626,329L681,286L587,212Z" fill="rgb(141,79,16)" stroke="rgb(141,79,16)" stroke-width="1.51"/><path d="M681,443L579,385L555,415Z" fill="rgb(137,79,11)" stroke="rgb(137,79,11)" stroke-width="1.51"/><path d="M216,141L118,116L121,264Z" fill="rgb(121,48,65)" stroke="rgb(121,48,65)" stroke-width="1.51"/><path d="M349,36L267,18L216,141Z" fill="rgb(119,46,67)" stroke="rgb(119,46,67)" stroke-width="1.51"/><path d="M373,-12L267,18L349,36Z" fill="rgb(118,44,69)" stroke="rgb(118,44,69)" stroke-width="1.51"/><path d="M441,38L373,-12L349,36Z" fill="rgb(124,51,62)" stroke="rgb(124,51,62)" stroke-width="1.51"/><path d="M448,-38L373,-12L441,38Z" fill="rgb(122,49,63)" stroke="rgb(122,49,63)" stroke-width="1.51"/><path d="M444,555L533,554L472,481Z" fill="rgb(136,78,11)" stroke="rgb(136,78,11)" stroke-width="1.51"/><path d="M548,113L569,31L441,38Z" fill="rgb(124,54,55)" stroke="rgb(124,54,55)" stroke-width="1.51"/><path d="M619,56L569,31L548,113Z" fill="rgb(122,53,55)" stroke="rgb(122,53,55)" stroke-width="1.51"/><path d="M619,56L548,113L612,184Z" fill="rgb(127,60,47)" stroke="rgb(127,60,47)" stroke-width="1.51"/><path d="M211,414L235,583L382,464Z" fill="rgb(133,70,33)" stroke="rgb(133,70,33)" stroke-width="1.51"/><path d="M48,328L131,469L182,349Z" fill="rgb(128,59,51)" stroke="rgb(128,59,51)" stroke-width="1.51"/><path d="M120,32L118,116L216,141Z" fill="rgb(112,37,75)" stroke="rgb(112,37,75)" stroke-width="1.51"/><path d="M771,134L619,56L612,184Z" fill="rgb(124,59,47)" stroke="rgb(124,59,47)" stroke-width="1.51"/><path d="M569,31L448,-38L441,38Z" fill="rgb(120,48,62)" stroke="rgb(120,48,62)" stroke-width="1.51"/><path d="M146,-73L120,32L267,18Z" fill="rgb(101,26,85)" stroke="rgb(101,26,85)" stroke-width="1.51"/><path d="M573,-63L448,-38L569,31Z" fill="rgb(117,46,64)" stroke="rgb(117,46,64)" stroke-width="1.51"/><path d="M644,528L681,443L555,415Z" fill="rgb(133,76,13)" stroke="rgb(133,76,13)" stroke-width="1.51"/><path d="M131,469L235,583L211,414Z" fill="rgb(127,62,43)" stroke="rgb(127,62,43)" stroke-width="1.51"/><path d="M373,663L474,650L444,555Z" fill="rgb(134,77,13)" stroke="rgb(134,77,13)" stroke-width="1.51"/><path d="M444,555L474,650L533,554Z" fill="rgb(133,76,14)" stroke="rgb(133,76,14)" stroke-width="1.51"/><path d="M121,264L48,328L182,349Z" fill="rgb(131,61,51)" stroke="rgb(131,61,51)" stroke-width="1.51"/><path d="M35,212L48,328L121,264Z" fill="rgb(125,52,61)" stroke="rgb(125,52,61)" stroke-width="1.51"/><path d="M533,554L644,528L555,415Z" fill="rgb(133,76,13)" stroke="rgb(133,76,13)" stroke-width="1.51"/><path d="M681,286L755,234L612,184Z" fill="rgb(135,73,27)" stroke="rgb(135,73,27)" stroke-width="1.51"/><path d="M681,443L743,336L626,329Z" fill="rgb(136,78,11)" stroke="rgb(136,78,11)" stroke-width="1.51"/><path d="M747,450L743,336L681,443Z" fill="rgb(132,76,14)" stroke="rgb(132,76,14)" stroke-width="1.51"/><path d="M118,116L35,212L121,264Z" fill="rgb(119,45,68)" stroke="rgb(119,45,68)" stroke-width="1.51"/><path d="M743,336L755,234L681,286Z" fill="rgb(137,78,15)" stroke="rgb(137,78,15)" stroke-width="1.51"/><path d="M118,116L10,125L35,212Z" fill="rgb(109,34,77)" stroke="rgb(109,34,77)" stroke-width="1.51"/><path d="M267,18L120,32L216,141Z" fill="rgb(112,37,75)" stroke="rgb(112,37,75)" stroke-width="1.51"/><path d="M254,-72L267,18L373,-12Z" fill="rgb(113,39,74)" stroke="rgb(113,39,74)" stroke-width="1.51"/><path d="M131,469L171,587L235,583Z" fill="rgb(122,59,46)" stroke="rgb(122,59,46)" stroke-width="1.51"/><path d="M14,523L171,587L131,469Z" fill="rgb(118,52,53)" stroke="rgb(118,52,53)" stroke-width="1.51"/><path d="M533,554L589,639L644,528Z" fill="rgb(128,73,15)" stroke="rgb(128,73,15)" stroke-width="1.51"/><path d="M373,663L444,555L376,543Z" fill="rgb(136,78,13)" stroke="rgb(136,78,13)" stroke-width="1.51"/><path d="M373,663L376,543L235,583Z" fill="rgb(130,71,26)" stroke="rgb(130,71,26)" stroke-width="1.51"/><path d="M221,655L373,663L235,583Z" fill="rgb(127,66,34)" stroke="rgb(127,66,34)" stroke-width="1.51"/><path d="M378,-166L254,-72L373,-12Z" fill="rgb(117,42,70)" stroke="rgb(117,42,70)" stroke-width="1.51"/><path d="M120,32L61,83L118,116Z" fill="rgb(104,29,83)" stroke="rgb(104,29,83)" stroke-width="1.51"/><path d="M448,-38L378,-166L373,-12Z" fill="rgb(123,49,63)" stroke="rgb(123,49,63)" stroke-width="1.51"/><path d="M632,-43L573,-63L569,31Z" fill="rgb(114,44,64)" stroke="rgb(114,44,64)" stroke-width="1.51"/><path d="M632,-43L569,31L619,56Z" fill="rgb(115,46,61)" stroke="rgb(115,46,61)" stroke-width="1.51"/><path d="M739,563L747,450L681,443Z" fill="rgb(128,73,16)" stroke="rgb(128,73,16)" stroke-width="1.51"/><path d="M743,336L824,273L755,234Z" fill="rgb(135,76,17)" stroke="rgb(135,76,17)" stroke-width="1.51"/><path d="M48,328L36,462L131,469Z" fill="rgb(121,52,57)" stroke="rgb(121,52,57)" stroke-width="1.51"/><path d="M-80,431L36,462L48,328Z" fill="rgb(116,46,64)" stroke="rgb(116,46,64)" stroke-width="1.51"/><path d="M727,42L632,-43L619,56Z" fill="rgb(113,45,62)" stroke="rgb(113,45,62)" stroke-width="1.51"/><path d="M474,650L589,639L533,554Z" fill="rgb(129,74,15)" stroke="rgb(129,74,15)" stroke-width="1.51"/><path d="M644,528L739,563L681,443Z" fill="rgb(128,73,16)" stroke="rgb(128,73,16)" stroke-width="1.51"/><path d="M585,727L589,639L474,650Z" fill="rgb(129,74,15)" stroke="rgb(129,74,15)" stroke-width="1.51"/><path d="M755,234L771,134L612,184Z" fill="rgb(128,65,37)" stroke="rgb(128,65,37)" stroke-width="1.51"/><path d="M879,155L771,134L755,234Z" fill="rgb(123,62,40)" stroke="rgb(123,62,40)" stroke-width="1.51"/><path d="M171,587L221,655L235,583Z" fill="rgb(122,59,42)" stroke="rgb(122,59,42)" stroke-width="1.51"/><path d="M133,681L221,655L171,587Z" fill="rgb(119,56,46)" stroke="rgb(119,56,46)" stroke-width="1.51"/><path d="M771,134L727,42L619,56Z" fill="rgb(117,52,53)" stroke="rgb(117,52,53)" stroke-width="1.51"/><path d="M35,212L-19,239L48,328Z" fill="rgb(120,46,67)" stroke="rgb(120,46,67)" stroke-width="1.51"/><path d="M10,125L-19,239L35,212Z" fill="rgb(110,35,77)" stroke="rgb(110,35,77)" stroke-width="1.51"/><path d="M-40,65L10,125L61,83Z" fill="rgb(96,20,89)" stroke="rgb(96,20,89)" stroke-width="1.51"/><path d="M61,83L10,125L118,116Z" fill="rgb(104,29,82)" stroke="rgb(104,29,82)" stroke-width="1.51"/><path d="M589,639L642,626L644,528Z" fill="rgb(125,71,16)" stroke="rgb(125,71,16)" stroke-width="1.51"/><path d="M837,369L824,273L743,336Z" fill="rgb(134,77,13)" stroke="rgb(134,77,13)" stroke-width="1.51"/><path d="M28,-51L-40,65L61,83Z" fill="rgb(88,10,96)" stroke="rgb(88,10,96)" stroke-width="1.51"/><path d="M254,-72L146,-73L267,18Z" fill="rgb(106,31,81)" stroke="rgb(106,31,81)" stroke-width="1.51"/><path d="M563,-137L448,-38L573,-63Z" fill="rgb(117,46,64)" stroke="rgb(117,46,64)" stroke-width="1.51"/><path d="M563,-137L450,-149L448,-38Z" fill="rgb(119,47,64)" stroke="rgb(119,47,64)" stroke-width="1.51"/><path d="M254,-72L253,-163L146,-73Z" fill="rgb(106,30,81)" stroke="rgb(106,30,81)" stroke-width="1.51"/><path d="M-120,216L-45,310L-19,239Z" fill="rgb(118,43,70)" stroke="rgb(118,43,70)" stroke-width="1.51"/><path d="M-19,239L-45,310L48,328Z" fill="rgb(122,48,65)" stroke="rgb(122,48,65)" stroke-width="1.51"/><path d="M747,450L837,369L743,336Z" fill="rgb(131,75,14)" stroke="rgb(131,75,14)" stroke-width="1.51"/><path d="M642,626L739,563L644,528Z" fill="rgb(125,71,17)" stroke="rgb(125,71,17)" stroke-width="1.51"/><path d="M-80,431L14,523L36,462Z" fill="rgb(112,43,64)" stroke="rgb(112,43,64)" stroke-width="1.51"/><path d="M36,462L14,523L131,469Z" fill="rgb(117,49,58)" stroke="rgb(117,49,58)" stroke-width="1.51"/><path d="M450,-149L378,-166L448,-38Z" fill="rgb(122,49,64)" stroke="rgb(122,49,64)" stroke-width="1.51"/><path d="M319,752L454,731L373,663Z" fill="rgb(134,76,16)" stroke="rgb(134,76,16)" stroke-width="1.51"/><path d="M373,663L454,731L474,650Z" fill="rgb(134,77,13)" stroke="rgb(134,77,13)" stroke-width="1.51"/><path d="M589,639L585,727L642,626Z" fill="rgb(126,72,16)" stroke="rgb(126,72,16)" stroke-width="1.51"/><path d="M856,431L837,369L747,450Z" fill="rgb(128,73,15)" stroke="rgb(128,73,15)" stroke-width="1.51"/><path d="M450,-149L687,-153L378,-166Z" fill="rgb(118,46,64)" stroke="rgb(118,46,64)" stroke-width="1.51"/><path d="M632,-43L563,-137L573,-63Z" fill="rgb(114,44,64)" stroke="rgb(114,44,64)" stroke-width="1.51"/><path d="M687,-153L563,-137L632,-43Z" fill="rgb(112,43,64)" stroke="rgb(112,43,64)" stroke-width="1.51"/><path d="M378,-166L253,-163L254,-72Z" fill="rgb(113,38,74)" stroke="rgb(113,38,74)" stroke-width="1.51"/><path d="M727,42L743,-26L632,-43Z" fill="rgb(109,41,64)" stroke="rgb(109,41,64)" stroke-width="1.51"/><path d="M822,-27L743,-26L727,42Z" fill="rgb(106,40,64)" stroke="rgb(106,40,64)" stroke-width="1.51"/><path d="M837,70L727,42L771,134Z" fill="rgb(115,50,53)" stroke="rgb(115,50,53)" stroke-width="1.51"/><path d="M221,655L319,752L373,663Z" fill="rgb(128,69,30)" stroke="rgb(128,69,30)" stroke-width="1.51"/><path d="M229,737L319,752L221,655Z" fill="rgb(125,64,37)" stroke="rgb(125,64,37)" stroke-width="1.51"/><path d="M26,680L133,681L171,587Z" fill="rgb(114,50,53)" stroke="rgb(114,50,53)" stroke-width="1.51"/><path d="M133,681L229,737L221,655Z" fill="rgb(121,58,44)" stroke="rgb(121,58,44)" stroke-width="1.51"/><path d="M10,125L-76,168L-19,239Z" fill="rgb(108,32,79)" stroke="rgb(108,32,79)" stroke-width="1.51"/><path d="M-40,65L-76,168L10,125Z" fill="rgb(99,23,87)" stroke="rgb(99,23,87)" stroke-width="1.51"/><path d="M454,731L585,727L474,650Z" fill="rgb(131,75,14)" stroke="rgb(131,75,14)" stroke-width="1.51"/><path d="M642,626L716,676L739,563Z" fill="rgb(122,69,18)" stroke="rgb(122,69,18)" stroke-width="1.51"/><path d="M615,754L585,727L454,731Z" fill="rgb(129,74,15)" stroke="rgb(129,74,15)" stroke-width="1.51"/><path d="M28,-51L120,32L146,-73Z" fill="rgb(92,16,92)" stroke="rgb(92,16,92)" stroke-width="1.51"/><path d="M28,-51L61,83L120,32Z" fill="rgb(92,15,92)" stroke="rgb(92,15,92)" stroke-width="1.51"/><path d="M834,580L856,431L747,450Z" fill="rgb(124,71,17)" stroke="rgb(124,71,17)" stroke-width="1.51"/><path d="M950,216L879,155L824,273Z" fill="rgb(128,67,33)" stroke="rgb(128,67,33)" stroke-width="1.51"/><path d="M879,155L755,234L824,273Z" fill="rgb(128,68,32)" stroke="rgb(128,68,32)" stroke-width="1.51"/><path d="M879,155L837,70L771,134Z" fill="rgb(118,55,48)" stroke="rgb(118,55,48)" stroke-width="1.51"/><path d="M-45,310L-80,431L48,328Z" fill="rgb(119,47,64)" stroke="rgb(119,47,64)" stroke-width="1.51"/><path d="M14,523L26,680L171,587Z" fill="rgb(111,46,57)" stroke="rgb(111,46,57)" stroke-width="1.51"/><path d="M-128,438L-80,431L-156,375Z" fill="rgb(116,45,64)" stroke="rgb(116,45,64)" stroke-width="1.51"/><path d="M132,-142L28,-51L146,-73Z" fill="rgb(93,16,92)" stroke="rgb(93,16,92)" stroke-width="1.51"/><path d="M253,-163L132,-142L146,-73Z" fill="rgb(101,26,85)" stroke="rgb(101,26,85)" stroke-width="1.51"/><path d="M950,216L824,273L952,380Z" fill="rgb(134,76,15)" stroke="rgb(134,76,15)" stroke-width="1.51"/><path d="M615,754L716,676L642,626Z" fill="rgb(124,71,17)" stroke="rgb(124,71,17)" stroke-width="1.51"/><path d="M739,563L834,580L747,450Z" fill="rgb(123,70,17)" stroke="rgb(123,70,17)" stroke-width="1.51"/><path d="M-76,168L-120,216L-19,239Z" fill="rgb(111,37,76)" stroke="rgb(111,37,76)" stroke-width="1.51"/><path d="M-135,172L-120,216L-76,168Z" fill="rgb(109,33,79)" stroke="rgb(109,33,79)" stroke-width="1.51"/><path d="M585,727L615,754L642,626Z" fill="rgb(126,72,16)" stroke="rgb(126,72,16)" stroke-width="1.51"/><path d="M319,752L615,754L454,731Z" fill="rgb(132,76,13)" stroke="rgb(132,76,13)" stroke-width="1.51"/><path d="M-80,431L-72,530L14,523Z" fill="rgb(111,43,64)" stroke="rgb(111,43,64)" stroke-width="1.51"/><path d="M-128,438L-72,530L-80,431Z" fill="rgb(112,44,64)" stroke="rgb(112,44,64)" stroke-width="1.51"/><path d="M563,-137L687,-153L450,-149Z" fill="rgb(115,45,64)" stroke="rgb(115,45,64)" stroke-width="1.51"/><path d="M743,-26L687,-153L632,-43Z" fill="rgb(110,42,64)" stroke="rgb(110,42,64)" stroke-width="1.51"/><path d="M739,-157L687,-153L743,-26Z" fill="rgb(108,41,64)" stroke="rgb(108,41,64)" stroke-width="1.51"/><path d="M837,70L822,-27L727,42Z" fill="rgb(108,43,60)" stroke="rgb(108,43,60)" stroke-width="1.51"/><path d="M979,56L822,-27L837,70Z" fill="rgb(108,43,60)" stroke="rgb(108,43,60)" stroke-width="1.51"/><path d="M832,665L834,580L739,563Z" fill="rgb(118,67,19)" stroke="rgb(118,67,19)" stroke-width="1.51"/><path d="M133,681L188,777L229,737Z" fill="rgb(120,57,45)" stroke="rgb(120,57,45)" stroke-width="1.51"/><path d="M229,737L188,777L319,752Z" fill="rgb(124,63,38)" stroke="rgb(124,63,38)" stroke-width="1.51"/><path d="M319,752L188,777L615,754Z" fill="rgb(133,75,18)" stroke="rgb(133,75,18)" stroke-width="1.51"/><path d="M35,718L188,777L133,681Z" fill="rgb(115,51,52)" stroke="rgb(115,51,52)" stroke-width="1.51"/><path d="M-156,375L-80,431L-45,310Z" fill="rgb(118,47,64)" stroke="rgb(118,47,64)" stroke-width="1.51"/><path d="M-139,28L-135,172L-76,168Z" fill="rgb(100,24,86)" stroke="rgb(100,24,86)" stroke-width="1.51"/><path d="M-139,28L-76,168L-40,65Z" fill="rgb(94,18,91)" stroke="rgb(94,18,91)" stroke-width="1.51"/><path d="M-18,673L26,680L14,523Z" fill="rgb(105,40,63)" stroke="rgb(105,40,63)" stroke-width="1.51"/><path d="M-156,375L-45,310L-120,216Z" fill="rgb(123,49,63)" stroke="rgb(123,49,63)" stroke-width="1.51"/><path d="M-112,-41L-139,28L-40,65Z" fill="rgb(83,4,99)" stroke="rgb(83,4,99)" stroke-width="1.51"/><path d="M132,-142L75,-165L28,-51Z" fill="rgb(90,13,94)" stroke="rgb(90,13,94)" stroke-width="1.51"/><path d="M253,-163L75,-165L132,-142Z" fill="rgb(98,23,87)" stroke="rgb(98,23,87)" stroke-width="1.51"/><path d="M-61,-178L75,-165L253,-163Z" fill="rgb(91,14,93)" stroke="rgb(91,14,93)" stroke-width="1.51"/><path d="M-135,172L-156,375L-120,216Z" fill="rgb(118,43,70)" stroke="rgb(118,43,70)" stroke-width="1.51"/><path d="M687,-153L739,-157L378,-166Z" fill="rgb(113,44,64)" stroke="rgb(113,44,64)" stroke-width="1.51"/><path d="M822,-27L739,-157L743,-26Z" fill="rgb(106,40,64)" stroke="rgb(106,40,64)" stroke-width="1.51"/><path d="M26,680L35,718L133,681Z" fill="rgb(110,46,57)" stroke="rgb(110,46,57)" stroke-width="1.51"/><path d="M-18,673L35,718L26,680Z" fill="rgb(106,40,62)" stroke="rgb(106,40,62)" stroke-width="1.51"/><path d="M-18,673L14,523L-72,530Z" fill="rgb(106,40,64)" stroke="rgb(106,40,64)" stroke-width="1.51"/><path d="M952,380L837,369L856,431Z" fill="rgb(130,74,15)" stroke="rgb(130,74,15)" stroke-width="1.51"/><path d="M952,380L824,273L837,369Z" fill="rgb(133,76,13)" stroke="rgb(133,76,13)" stroke-width="1.51"/><path d="M879,155L950,145L837,70Z" fill="rgb(118,55,47)" stroke="rgb(118,55,47)" stroke-width="1.51"/><path d="M-120,674L-18,673L-72,530Z" fill="rgb(104,39,64)" stroke="rgb(104,39,64)" stroke-width="1.51"/><path d="M983,475L952,380L856,431Z" fill="rgb(128,73,15)" stroke="rgb(128,73,15)" stroke-width="1.51"/><path d="M822,-27L863,-140L739,-157Z" fill="rgb(104,39,64)" stroke="rgb(104,39,64)" stroke-width="1.51"/><path d="M950,216L950,145L879,155Z" fill="rgb(123,61,40)" stroke="rgb(123,61,40)" stroke-width="1.51"/><path d="M979,56L950,145L950,216Z" fill="rgb(120,57,45)" stroke="rgb(120,57,45)" stroke-width="1.51"/><path d="M834,580L946,524L856,431Z" fill="rgb(123,70,17)" stroke="rgb(123,70,17)" stroke-width="1.51"/><path d="M716,676L832,665L739,563Z" fill="rgb(119,68,19)" stroke="rgb(119,68,19)" stroke-width="1.51"/><path d="M750,744L832,665L716,676Z" fill="rgb(119,68,19)" stroke="rgb(119,68,19)" stroke-width="1.51"/><path d="M615,754L750,744L716,676Z" fill="rgb(122,70,18)" stroke="rgb(122,70,18)" stroke-width="1.51"/><path d="M-135,172L-182,-120L-156,375Z" fill="rgb(103,27,84)" stroke="rgb(103,27,84)" stroke-width="1.51"/><path d="M-112,-41L-40,65L28,-51Z" fill="rgb(79,1,101)" stroke="rgb(79,1,101)" stroke-width="1.51"/><path d="M-85,-83L-112,-41L28,-51Z" fill="rgb(79,1,101)" stroke="rgb(79,1,101)" stroke-width="1.51"/><path d="M-61,-178L-85,-83L28,-51Z" fill="rgb(79,1,101)" stroke="rgb(79,1,101)" stroke-width="1.51"/><path d="M952,666L946,524L834,580Z" fill="rgb(118,67,19)" stroke="rgb(118,67,19)" stroke-width="1.51"/><path d="M946,524L983,475L856,431Z" fill="rgb(125,71,16)" stroke="rgb(125,71,16)" stroke-width="1.51"/><path d="M952,380L983,475L950,216Z" fill="rgb(132,76,14)" stroke="rgb(132,76,14)" stroke-width="1.51"/><path d="M950,145L979,56L837,70Z" fill="rgb(115,51,52)" stroke="rgb(115,51,52)" stroke-width="1.51"/><path d="M983,475L979,56L950,216Z" fill="rgb(130,72,26)" stroke="rgb(130,72,26)" stroke-width="1.51"/><path d="M989,-24L863,-140L822,-27Z" fill="rgb(104,39,64)" stroke="rgb(104,39,64)" stroke-width="1.51"/><path d="M-18,673L-73,765L35,718Z" fill="rgb(104,39,64)" stroke="rgb(104,39,64)" stroke-width="1.51"/><path d="M35,718L-73,765L188,777Z" fill="rgb(109,44,59)" stroke="rgb(109,44,59)" stroke-width="1.51"/><path d="M-190,573L-120,674L-72,530Z" fill="rgb(105,40,64)" stroke="rgb(105,40,64)" stroke-width="1.51"/><path d="M-190,573L-72,530L-128,438Z" fill="rgb(110,42,64)" stroke="rgb(110,42,64)" stroke-width="1.51"/><path d="M750,744L862,727L832,665Z" fill="rgb(118,67,19)" stroke="rgb(118,67,19)" stroke-width="1.51"/><path d="M832,665L952,666L834,580Z" fill="rgb(118,67,19)" stroke="rgb(118,67,19)" stroke-width="1.51"/><path d="M946,524L952,666L983,475Z" fill="rgb(120,68,18)" stroke="rgb(120,68,18)" stroke-width="1.51"/><path d="M75,-165L-61,-178L28,-51Z" fill="rgb(81,3,100)" stroke="rgb(81,3,100)" stroke-width="1.51"/><path d="M-85,-83L-182,-120L-112,-41Z" fill="rgb(79,1,101)" stroke="rgb(79,1,101)" stroke-width="1.51"/><path d="M-112,-41L-182,-120L-139,28Z" fill="rgb(79,1,101)" stroke="rgb(79,1,101)" stroke-width="1.51"/><path d="M378,-166L-61,-178L253,-163Z" fill="rgb(103,27,83)" stroke="rgb(103,27,83)" stroke-width="1.51"/><path d="M739,-157L-61,-178L378,-166Z" fill="rgb(118,45,68)" stroke="rgb(118,45,68)" stroke-width="1.51"/><path d="M-156,375L-190,573L-128,438Z" fill="rgb(113,44,64)" stroke="rgb(113,44,64)" stroke-width="1.51"/><path d="M-182,-120L-190,573L-156,375Z" fill="rgb(120,46,67)" stroke="rgb(120,46,67)" stroke-width="1.51"/><path d="M-120,674L-73,765L-18,673Z" fill="rgb(104,39,64)" stroke="rgb(104,39,64)" stroke-width="1.51"/><path d="M-190,757L-73,765L-120,674Z" fill="rgb(104,39,64)" stroke="rgb(104,39,64)" stroke-width="1.51"/><path d="M979,56L989,-24L822,-27Z" fill="rgb(105,39,64)" stroke="rgb(105,39,64)" stroke-width="1.51"/><path d="M983,475L989,-24L979,56Z" fill="rgb(123,61,40)" stroke="rgb(123,61,40)" stroke-width="1.51"/><path d="M862,727L952,666L832,665Z" fill="rgb(118,67,19)" stroke="rgb(118,67,19)" stroke-width="1.51"/><path d="M989,-24L924,-152L863,-140Z" fill="rgb(104,39,64)" stroke="rgb(104,39,64)" stroke-width="1.51"/><path d="M863,-140L924,-152L739,-157Z" fill="rgb(104,39,64)" stroke="rgb(104,39,64)" stroke-width="1.51"/><path d="M-61,-178L-182,-120L-85,-83Z" fill="rgb(79,1,101)" stroke="rgb(79,1,101)" stroke-width="1.51"/><path d="M-139,28L-182,-120L-135,172Z" fill="rgb(84,6,98)" stroke="rgb(84,6,98)" stroke-width="1.51"/><path d="M862,727L940,758L952,666Z" fill="rgb(118,67,19)" stroke="rgb(118,67,19)" stroke-width="1.51"/><path d="M952,666L940,758L983,475Z" fill="rgb(118,67,19)" stroke="rgb(118,67,19)" stroke-width="1.51"/><path d="M750,744L940,758L862,727Z" fill="rgb(118,67,19)" stroke="rgb(118,67,19)" stroke-width="1.51"/><path d="M615,754L940,758L750,744Z" fill="rgb(119,68,19)" stroke="rgb(119,68,19)" stroke-width="1.51"/><path d="M188,777L940,758L615,754Z" fill="rgb(127,73,16)" stroke="rgb(127,73,16)" stroke-width="1.51"/><path d="M-190,573L-190,757L-120,674Z" fill="rgb(104,39,64)" stroke="rgb(104,39,64)" stroke-width="1.51"/></svg>