<svg xmlns="http://www.w3.org/2000/svg" fill="#0080FF" viewBox="0 0 64 64" x="0px" y="0px"><title>diamond, precious stones, ruby, jewelry, sapphire</title><g data-name="Layer 2"><polygon points="23.75 13.38 20.85 6.38 6.38 20.85 13.38 23.75 23.75 13.38"/><polygon points="39.34 13 42.23 6 21.77 6 24.66 13 39.34 13"/><polygon points="50.62 23.75 57.62 20.85 43.15 6.38 40.25 13.38 50.62 23.75"/><polygon points="24.54 14 14 24.54 14 39.46 24.54 50 39.46 50 50 39.46 50 24.54 39.46 14 24.54 14"/><polygon points="13 24.66 6 21.77 6 42.23 13 39.34 13 24.66"/><polygon points="13.38 40.25 6.38 43.15 20.85 57.62 23.75 50.62 13.38 40.25"/><polygon points="51 24.66 51 39.34 58 42.23 58 21.77 51 24.66"/><polygon points="40.25 50.62 43.15 57.62 57.62 43.15 50.62 40.25 40.25 50.62"/><polygon points="24.66 51 21.77 58 42.23 58 39.34 51 24.66 51"/></g></svg>