<svg id="ectBmxjfkbS1" xmlns="http://www.w3.org/2000/svg" xmlns:xlink="http://www.w3.org/1999/xlink" viewBox="0 25 100 50" shape-rendering="geometricPrecision" text-rendering="geometricPrecision"><defs><filter id="ectBmxjfkbS3-filter" x="-400%" width="600%" y="-400%" height="600%"><feGaussianBlur id="ectBmxjfkbS3-filter-blur-0" stdDeviation="0,0" result="result"/></filter></defs><path id="ectBmxjfkbS2" d="M20.737,37.067L9.701,47.877L3.818,72.99L22.298,72.99L25.29,49.276L30.067,42.731L20.737,37.067ZM12.2,56.232C12.271,55.48,12.39,54.74,12.506,54L12.699,52.894C12.763,52.526,12.842,52.161,12.912,51.793C13.05,51.057,13.225,50.331,13.382,49.601C13.547,48.873,13.727,48.148,13.909,47.424L13.937,47.315L14.004,47.231L14.707,46.356C14.942,46.065,15.171,45.77,15.413,45.483C15.897,44.913,16.367,44.331,16.866,43.772C17.116,43.491,17.358,43.207,17.612,42.93L18.372,42.101C18.633,41.83,18.888,41.555,19.153,41.287C19.417,41.019,19.682,40.752,19.96,40.494C19.774,40.825,19.579,41.146,19.381,41.467C19.185,41.788,18.978,42.101,18.777,42.419L18.152,43.354C17.943,43.667,17.724,43.969,17.51,44.277C17.086,44.896,16.632,45.49,16.193,46.097C15.972,46.399,15.74,46.691,15.513,46.99L15.044,47.6L18.326,53.39L14.657,48.709C14.555,49.09,14.452,49.47,14.344,49.848C14.131,50.564,13.937,51.285,13.705,51.997C13.591,52.352,13.484,52.71,13.364,53.065L13.004,54.128C12.75,54.832,12.498,55.539,12.2,56.232ZM19.439,59.686C19.261,59.885,19.078,60.079,18.894,60.272C18.708,60.463,18.53,60.663,18.34,60.846C17.964,61.223,17.591,61.604,17.206,61.969C16.86,62.301,16.509,62.623,16.155,62.948C15.79,64.261,15.382,65.559,14.93,66.848L14.564,67.842C14.444,68.174,14.305,68.5,14.177,68.83C14.048,69.158,13.901,69.482,13.764,69.809C13.618,70.133,13.471,70.457,13.307,70.778C13.343,70.421,13.397,70.069,13.45,69.717C13.512,69.367,13.563,69.016,13.635,68.67C13.707,68.324,13.767,67.975,13.847,67.629L14.079,66.596C14.409,65.225,14.783,63.866,15.206,62.52L15.253,62.37L15.36,62.28C15.764,61.936,16.173,61.596,16.587,61.266C17,60.93,17.425,60.61,17.846,60.286C18.056,60.122,18.275,59.97,18.49,59.811C18.705,59.652,18.92,59.495,19.14,59.346C19.578,59.041,20.023,58.742,20.486,58.465C20.151,58.889,19.799,59.291,19.439,59.686Z" fill="rgb(54,0,85)" stroke="none" stroke-width="1"/><path id="ectBmxjfkbS3" d="M42.283,52.7L51.628,55.862L60.459,52.833L63.275,72.995L33.2,73.045L35.088,53.348L42.283,52.7Z" filter="url(#ectBmxjfkbS3-filter)" fill="rgb(241,80,0)" stroke="none" stroke-width="1"/><path id="ectBmxjfkbS4" d="M66.141,43.417L49.963,27.009L38.748,32.617L26.301,49.677L23.357,72.99L36.342,72.99L34.084,62.961L37.383,55.592C36.841,55.221,36.302,54.84,35.773,54.44C36.558,54.624,37.334,54.833,38.099,55.057L38.676,55.223C38.87,55.276,39.032,55.393,39.212,55.473L40.005,55.846L43.168,53.575L43.427,53.39L43.71,53.531L52.336,57.845L53.08,57.245C53.247,57.11,53.418,56.979,53.575,56.833C53.738,56.69,53.944,56.603,54.129,56.487C54.508,56.272,54.884,56.053,55.269,55.844C55.651,55.631,56.04,55.428,56.428,55.225C56.147,55.561,55.865,55.899,55.575,56.225C55.522,56.286,55.468,56.344,55.415,56.403L59.507,64.46L57.785,69.478L58.389,72.99L69.781,72.99L66.141,43.417ZM48.346,34.894C48.534,34.062,48.804,33.251,49.075,32.656C49.21,32.359,49.339,32.114,49.437,31.946C49.536,31.777,49.603,31.682,49.603,31.682C49.603,31.682,49.624,31.797,49.64,31.991C49.658,32.186,49.67,32.461,49.666,32.788C49.656,33.44,49.557,34.29,49.371,35.122C49.185,35.954,48.914,36.767,48.644,37.361C48.507,37.658,48.379,37.902,48.28,38.071C48.182,38.24,48.114,38.334,48.114,38.334C48.114,38.334,48.093,38.221,48.076,38.026C48.059,37.831,48.046,37.555,48.05,37.229C48.059,36.576,48.159,35.726,48.346,34.894ZM39.225,43.127C38.825,43.492,38.409,43.835,37.998,44.187C37.578,44.525,37.164,44.874,36.738,45.202C36.354,45.496,35.975,45.797,35.588,46.085C35.344,46.786,35.104,47.49,34.84,48.183C34.699,48.554,34.561,48.925,34.412,49.291L33.966,50.392C33.819,50.761,33.653,51.122,33.498,51.485C33.344,51.85,33.172,52.209,33.006,52.571C32.669,53.29,32.32,54.005,31.923,54.702C32.066,53.913,32.256,53.139,32.458,52.372C32.562,51.989,32.66,51.603,32.776,51.224C32.89,50.845,32.995,50.462,33.117,50.085L33.48,48.954C33.602,48.578,33.733,48.204,33.862,47.829C34.122,47.081,34.406,46.343,34.685,45.602L34.742,45.451L34.866,45.364C35.306,45.054,35.762,44.765,36.209,44.466C36.658,44.168,37.121,43.889,37.576,43.6C38.041,43.324,38.5,43.039,38.974,42.778C39.443,42.509,39.921,42.253,40.412,42.012C40.027,42.398,39.631,42.769,39.225,43.127ZM42.244,37.712C41.686,37.055,41.195,36.342,40.879,35.763C40.721,35.472,40.602,35.221,40.525,35.039C40.447,34.857,40.412,34.746,40.412,34.746C40.412,34.746,40.517,34.799,40.683,34.905C40.851,35.009,41.079,35.168,41.34,35.37C41.861,35.776,42.486,36.375,43.044,37.032C43.602,37.688,44.094,38.4,44.409,38.98C44.567,39.269,44.686,39.522,44.763,39.704C44.84,39.885,44.875,39.997,44.875,39.997C44.875,39.997,44.771,39.945,44.604,39.839C44.437,39.734,44.207,39.576,43.947,39.374C43.426,38.969,42.802,38.369,42.244,37.712ZM51.79,54.701C51.686,54.256,51.59,53.808,51.501,53.36C51.416,52.912,51.329,52.464,51.252,52.015C51.179,51.566,51.1,51.117,51.031,50.667L50.849,49.44C50.527,48.979,50.209,48.516,49.889,48.054C49.551,47.569,49.234,47.07,48.906,46.579C48.576,46.089,48.258,45.591,47.943,45.091C47.763,44.801,47.578,44.513,47.396,44.225C47.212,44.5,47.027,44.775,46.836,45.048C46.495,45.529,46.165,46.016,45.815,46.492C45.468,46.97,45.121,47.446,44.758,47.914C44.402,48.385,44.03,48.848,43.65,49.304C43.897,48.763,44.154,48.229,44.424,47.703C44.69,47.174,44.969,46.655,45.249,46.135C45.525,45.614,45.823,45.105,46.108,44.589C46.397,44.076,46.703,43.572,46.999,43.063L47.374,42.42L47.823,43.057C48.165,43.54,48.479,44.04,48.809,44.531C49.137,45.022,49.459,45.516,49.772,46.018C50.086,46.519,50.41,47.012,50.714,47.519C51.019,48.025,51.328,48.529,51.629,49.038L51.692,49.146L51.696,49.233L51.76,50.595C51.779,51.05,51.786,51.506,51.801,51.961C51.812,52.417,51.812,52.872,51.815,53.329C51.815,53.787,51.809,54.244,51.79,54.701ZM61.97,52.785C61.862,52.464,61.77,52.14,61.669,51.818C61.566,51.496,61.476,51.172,61.386,50.847C61.198,50.201,61.026,49.549,60.862,48.898C60.712,48.327,60.575,47.754,60.441,47.179C59.819,46.87,59.206,46.541,58.587,46.225C58.241,46.049,57.904,45.854,57.563,45.669C57.223,45.48,56.879,45.3,56.544,45.103L55.534,44.52L54.536,43.915C53.876,43.498,53.216,43.084,52.579,42.623C53.327,42.863,54.054,43.147,54.779,43.433L55.859,43.877L56.928,44.344C57.285,44.496,57.634,44.667,57.988,44.828C58.34,44.994,58.696,45.149,59.043,45.324C59.737,45.67,60.441,46,61.129,46.359L61.352,46.476L61.404,46.712C61.547,47.37,61.682,48.027,61.802,48.69C61.929,49.351,62.049,50.012,62.153,50.678C62.208,51.011,62.262,51.345,62.306,51.678C62.352,52.012,62.406,52.344,62.443,52.68C62.526,53.35,62.604,54.024,62.645,54.701C62.393,54.068,62.179,53.427,61.97,52.785Z" fill="rgb(68,0,107)" stroke="none" stroke-width="1"/><path id="ectBmxjfkbS5" d="M93.498,66.797L88.298,60.766L86.406,65.957L87.5,70.02L85.989,66.012L85.969,65.961L85.988,65.887L87.564,59.77L81.108,41.322L74.864,32.849L65.389,36.816L63.949,39.697L67.139,42.934L67.16,43.111L70.839,72.991L96.181,72.991L93.498,66.797ZM75.466,39.577C75.704,39.786,75.929,40.007,76.16,40.222C76.392,40.437,76.621,40.655,76.845,40.877C77.298,41.317,77.744,41.762,78.181,42.217C78.399,42.444,78.623,42.666,78.836,42.897L79.48,43.589L79.567,43.684L79.6,43.822C79.781,44.563,79.947,45.307,80.099,46.054C80.179,46.427,80.248,46.802,80.32,47.177C80.388,47.552,80.465,47.926,80.527,48.302L80.714,49.432C80.773,49.809,80.822,50.189,80.877,50.567C80.928,50.946,80.97,51.327,81.015,51.708C81.053,52.091,81.091,52.474,81.113,52.859C80.967,52.501,80.837,52.139,80.706,51.778C80.584,51.415,80.458,51.052,80.341,50.688C80.228,50.323,80.11,49.959,80,49.593L79.685,48.492C79.581,48.124,79.488,47.755,79.389,47.387C79.291,47.018,79.193,46.649,79.106,46.278C78.932,45.58,78.774,44.88,78.626,44.176L78.093,43.572C77.884,43.337,77.684,43.093,77.481,42.852C77.07,42.374,76.67,41.886,76.277,41.392C76.078,41.148,75.883,40.899,75.692,40.647C75.502,40.396,75.304,40.149,75.12,39.891C74.744,39.382,74.372,38.868,74.024,38.332C74.521,38.732,74.996,39.153,75.466,39.577ZM80.271,62.701L74.805,57.533C74.716,58.027,74.624,58.519,74.529,59.013C74.36,59.822,74.204,60.634,74.018,61.441C73.84,62.248,73.645,63.052,73.44,63.857C73.224,64.658,73.015,65.461,72.752,66.255C72.774,65.419,72.85,64.593,72.919,63.765C72.999,62.941,73.088,62.117,73.193,61.296C73.292,60.474,73.421,59.657,73.535,58.839C73.657,58.069,73.781,57.302,73.921,56.536C73.662,55.86,73.396,55.19,73.151,54.511C72.889,53.784,72.623,53.06,72.38,52.325C72.258,51.959,72.129,51.595,72.015,51.225C71.9,50.855,71.78,50.488,71.668,50.117C71.447,49.374,71.227,48.632,71.047,47.873C71.434,48.55,71.782,49.241,72.131,49.934C72.304,50.281,72.467,50.631,72.636,50.979C72.808,51.327,72.962,51.679,73.124,52.031C73.451,52.731,73.753,53.441,74.06,54.151C74.355,54.823,74.623,55.51,74.903,56.188L80.674,62.405L80.735,62.469L80.743,62.543L81.55,70.018L80.271,62.701Z" fill="rgb(54,0,85)" stroke="none" stroke-width="1"/><polygon id="ectBmxjfkbS6" points="41.988,70.598 40.238,67.797 36.051,66.91 37.419,72.99 41.988,72.99" paint-order="stroke fill markers" fill="rgb(68,0,107)" stroke="none" stroke-width="1"/><polygon id="ectBmxjfkbS7" points="56.706,69.393 57.967,65.715 53.06,68.061 51.222,70.424 52.097,72.99 57.323,72.99" paint-order="stroke fill markers" fill="rgb(68,0,107)" stroke="none" stroke-width="1"/></svg>