<svg xmlns="http://www.w3.org/2000/svg" xmlns:xlink="http://www.w3.org/1999/xlink" height="300px" width="300px" fill="#af1c1f" version="1.1" x="0px" y="0px" viewBox="0 0 100 100" enable-background="new 0 0 100 100" xml:space="preserve"><path d="M50,5.5C25.424,5.5,5.5,25.424,5.5,50c0,24.577,19.924,44.5,44.5,44.5c24.577,0,44.5-19.923,44.5-44.5  C94.5,25.424,74.577,5.5,50,5.5z M72.858,63.786l-9.008,9.008c-0.402,0.402-0.986,0.664-1.75,0.785  c-0.764,0.12-1.413-0.087-1.95-0.624L49.575,62.38L39.443,72.512c-1.181,1.181-2.414,1.128-3.7-0.159l-8.164-8.164  c-1.18-1.18-1.181-2.359,0-3.539l10.132-10.133L27.177,39.981c-1.18-1.18-1.126-2.413,0.16-3.7l9.009-9.008  c1.179-1.179,2.359-1.179,3.538,0L50.42,37.808l10.133-10.133c0.482-0.483,1.053-0.744,1.709-0.784  c0.656-0.039,1.268,0.222,1.829,0.784l8.165,8.164c0.402,0.402,0.663,0.986,0.783,1.75c0.121,0.765-0.087,1.415-0.622,1.951  L62.283,49.671l10.575,10.576c0.482,0.482,0.751,1.046,0.805,1.688C73.717,62.58,73.448,63.197,72.858,63.786z"/></svg>