<svg xmlns="http://www.w3.org/2000/svg" xmlns:xlink="http://www.w3.org/1999/xlink" fill="#3BB300" version="1.1" x="0px" y="0px" viewBox="0 0 100 100" enable-background="new 0 0 100 100" xml:space="preserve"><path d="M71.342,45.164c0,0,7.033-12.248-14.537-17.395c10.826-4.456,23.582,6.741,23.582,6.741s0.111-18.216-23.48-9.78  c5.457-9.048,16.656-9.713,16.656-9.713S63.059,3.709,54.521,22.656c-9.617-18.39-21.572-8.089-21.572-8.089  s11.089-0.348,18.42,9.754c-26.234-9.3-26.542,12.303-26.542,12.303S36.19,25.3,50.902,27.179  c-21.429,4.914-14.379,15.819-14.379,15.819s5.253-11.427,15.282-12.253L49.49,87.754h8.773L55.953,30.74  C64.098,32.571,71.342,45.164,71.342,45.164z"/><path d="M29.401,56.286c4.933-8.174,15.046-8.773,15.046-8.773s-9.486-10.215-17.199,6.899C18.561,37.8,7.763,47.105,7.763,47.105  s10.018-0.313,16.64,8.812C3.621,47.779,5.021,65.88,5.021,65.88s5.612-8.917,18.9-7.22C4.564,63.1,10.99,77.3,10.99,77.3  s4.22-13.004,13.928-15.614l-2.052,26.646h7.925l-2.046-26.606c7.757,2.082,12.693,16.53,12.693,16.53s7.84-14.573-11.646-19.224  c9.313-3.85,18.521,6.09,18.521,6.09S50.711,48.665,29.401,56.286z"/><path d="M80.736,63.033c3.808-6.311,11.617-6.774,11.617-6.774s-7.326-7.887-13.279,5.327c-6.707-12.826-15.047-5.643-15.047-5.643  s7.734-0.241,12.849,6.805c-18.3-6.486-15.183,8.025-15.183,8.025s4.552-7.217,14.813-5.907  c-14.945,3.427-9.984,14.392-9.984,14.392s3.258-10.04,10.754-12.056l-1.584,20.573h6.119l-1.58-20.543  c5.988,1.607,9.801,12.764,9.801,12.764s6.051-11.252-8.994-14.844c7.189-2.973,13.854,4.701,13.854,4.701  S97.189,57.148,80.736,63.033z"/></svg>