<svg xmlns="http://www.w3.org/2000/svg" xmlns:xlink="http://www.w3.org/1999/xlink" height="300px" width="300px" fill="#FFFFFF" version="1.1" x="0px" y="0px" viewBox="0 0 100 100" enable-background="new 0 0 100 100" xml:space="preserve"><g><path fill-rule="evenodd" clip-rule="evenodd" d="M56.747,64.5c-0.03-0.443,0.302-0.518,0.247-0.984   c0.869-0.586,1.33,0.469,1.968,0.738c0.596,0.252,1.583-0.162,1.723,0.736c0.268-0.059,0.167-0.488,0.492-0.49   c2.513,1.094,3.966-1.941,6.151-1.721C66.521,67.096,59.516,67.109,56.747,64.5z"/><path fill-rule="evenodd" clip-rule="evenodd" d="M93.58,50.811c-0.259-0.688-0.629-1.414-1.047-2.134   c-1.003-1.352-2.148-2.564-3.216-3.495c-1.763-1.538-3.814-3.327-5.887-4.826c-0.155-0.058-0.313-0.133-0.471-0.246   c-0.485-0.347-0.975-0.701-1.471-1.051c-0.177-0.108-0.354-0.223-0.529-0.324c-0.174-0.1-0.314-0.216-0.435-0.341   c-1.141-0.765-2.328-1.457-3.598-1.938c-2.321-0.713-4.944-1.158-7.631-1.484c-4.794-0.582-11.317-0.174-15.01,1.476   c-1.632,0.729-2.166,1.444-3.691,1.723c-1.206,1.324-2.536,2.446-3.937,2.953c-0.821,0.907-1.14,2.615-1.968,2.214   c-0.776,1.684-1.669,3.252-3.445,3.937c0.088,0.822-0.398,1.257-1.23,1.722c0.737,0.162-0.234,0.526,0,0.985   c0.928,0.189,1.177-0.3,1.97-0.246c-0.382,0.616-0.999,0.823-0.493,1.723c1.967,0.084,2.561,1.539,4.674,1.475   c2.668,2.956,7.596,2.277,11.073,3.2c-0.834,1.75-2.218,2.949-3.147,4.6c-0.198,0.852-0.307,1.708-0.219,2.6   c0.015,0.144,0.028,0.286,0.043,0.429h0.125c1.196-3.479,3.947-5.402,5.413-8.612c-0.237-2.994,1.837-4.907,0.492-6.398   c4.792,0.347,7.709,0.36,11.811,0.985c1.954,1.82,4.785,2.762,6.89,4.43c-1.074-0.094-2.227-0.113-3.198,0   c0.142-0.15,0.575-1.168,0-1.232c-1.834,0.045-3.919-3.91-6.151-2.705c0.526,2.182,3.237,2.176,4.183,3.938   c-1.561-0.105-3.862,0.152-4.676,0c-0.235,0.912-0.596,1.699-0.984,2.46c2.601,1.465,5.905,1.085,9.104,0.983   c0.869-0.027,1.92-0.116,2.707-0.246c2.625-0.431,4.708-1.832,6.89-2.461c0.688-0.195,1.116-0.459,1.23-0.49   c0.186-0.055,0.382,0.31,0.491,0.246c0.313-0.182,0.719-0.979,0.984-1.232c0.481-0.455,0.852-0.73,1.23-0.982   c0.025,0.631,0.917,0.395,1.23,0.737c0.412-0.62,0.966-1.1,0.492-1.969C92.698,51.13,93.205,51.035,93.58,50.811z M47.145,42.131   c0.617-0.966,1.75-1.334,2.875-0.807c1.078,0.506,1.438,1.904,0.448,2.706c-0.117,0.094-0.247,0.157-0.38,0.202   c-0.071,0.093-0.146,0.182-0.229,0.26c-0.793,0.743-2.129,0.947-2.93,0.101C46.22,43.845,46.507,42.806,47.145,42.131z    M51.826,48.259c-1.264,1.281-3.289,1.797-5.413,2.216C47.274,48.454,49.902,48.781,51.826,48.259z M52.318,52.688   c0.601-1.121,2.492-0.951,3.198-1.968C55.519,51.346,53.374,53.104,52.318,52.688z M57.979,53.674   c-1.189,0.628-2.562,0.302-3.199-0.74c1.514-0.208,2.227-1.217,3.199-1.968C58.741,51.711,56.555,52.912,57.979,53.674z    M55.763,49.244c-2.292,0.525-4.384,3.221-6.643,2.215c2.753-0.914,5.654-4.11,9.349-2.461   C58.13,50.215,56.545,49.556,55.763,49.244z M58.962,41.37c-1.59,1.639-5.389,2.877-5.905,0c1.007-1.126,2.75-1.515,4.922-1.477   C57.783,40.908,59.156,40.356,58.962,41.37z M63.593,38.28c-0.474,0.453-1.172,0.542-1.837,0.395c-0.002,0-0.004,0.001-0.006,0.001   c-0.936,0.017-1.827-0.441-1.958-1.434c-0.034-0.259,0.03-0.496,0.146-0.708c0.173-0.698,0.999-1.087,1.692-1.028   c0.128,0.011,0.261,0.039,0.393,0.065c0.497,0.019,0.997,0.139,1.391,0.433C64.156,36.562,64.302,37.602,63.593,38.28z    M79.877,39.647c1.824,1.159,3.695,1.94,5.148,3.097c0.317,0.089,0.533,0.286,0.62,0.537c0.1,0.066,0.196,0.141,0.284,0.227   c0.021,0.021,0.03,0.051,0.047,0.075c0.017,0,0.033,0,0.052,0.002c0.001,0.028,0.003,0.057,0.004,0.086   c0.008,0.018,0.023,0.03,0.03,0.049c0.234,0.059,0.356,0.272,0.381,0.504c0.024,0.035,0.054,0.063,0.077,0.099   c-0.034,0.007-0.049-0.004-0.078-0.001c-0.004,0.152-0.038,0.304-0.138,0.42c-0.521,0.61-1.253,0.745-1.999,0.643   c-0.249,0.01-0.484-0.055-0.715-0.15c-1.706-0.528-4.088-0.493-4.452-2.881C79.528,41.211,80.425,41.222,79.877,39.647z    M64.621,45.307c0.395-1.081,1.293-1.661,1.97-2.461c1.322,0.876,3.577,0.263,4.921,1.723   C71.157,48.701,66.427,47.28,64.621,45.307z M73.199,36.988c-0.05,0.211-0.198,0.396-0.415,0.461c-1.22,0.989-3.629,0.799-3.98-1   c0.022-0.002,0.043-0.002,0.064-0.003c-0.042-0.326,0.142-0.682,0.569-0.678c0.208,0.002,0.436,0.025,0.612,0.129   c0.339-0.027,0.688,0.005,1.016,0.052c0.579,0.082,1.152,0.201,1.721,0.341c0.347,0.085,0.46,0.375,0.418,0.647   c0.01,0.001,0.02,0.003,0.029,0.005C73.224,36.958,73.209,36.972,73.199,36.988z M80.368,53.919   c-0.259-2.528-3.527-2.048-4.674-3.69c2.497,0.146,4.727,1.757,6.151,3.69C81.33,53.383,81.143,54.041,80.368,53.919z    M80.861,50.229c1.769,0.527,3.296,1.297,4.183,2.705C83.047,52.637,81.952,51.435,80.861,50.229z M85.044,50.229   c1.656-0.18,2.294,0.659,2.953,1.477C86.638,51.988,85.894,51.385,85.044,50.229z M88.488,46.537c0.663-0.645,1,1.121,1.724,1.231   C89.414,48.549,89.054,46.804,88.488,46.537z"/><path fill-rule="evenodd" clip-rule="evenodd" d="M55.025,37.679C56.593,36.967,54.088,38.105,55.025,37.679L55.025,37.679z"/><path fill-rule="evenodd" clip-rule="evenodd" d="M67.081,52.197c0.489,0.408,0.314-0.021,0.984,0   c0.284,2.588-2.478,6.902,0.493,8.855c0.208,1.029-0.667,0.977-0.984,1.479c-2.009-1.068-2.229-4.527-1.723-7.382   c0.198-0.131,0.399-0.257,0.739-0.247C66.101,54.174,66.834,52.965,67.081,52.197z"/></g><g><path fill-rule="evenodd" clip-rule="evenodd" d="M36.244,57.986c-0.286,0.326-0.599,0.612-1.021,0.813   c-0.627,0.297-1.191,0.477-1.896,0.495c-0.622,0.016-1.219-0.121-1.749-0.386c-1.219-0.328-2.183-1.604-3.462-1.476   c0.64,3.422,6.194,3.434,8.389,1.365c0.024-0.351-0.239-0.411-0.195-0.781C36.286,58.002,36.266,57.999,36.244,57.986z"/><path fill-rule="evenodd" clip-rule="evenodd" d="M49.77,46.508c-0.661-0.37-1.046-0.714-0.976-1.366   c-0.038-0.015-0.07-0.035-0.107-0.051c-0.625,0.128-1.285,0.002-1.759-0.499c-0.425-0.45-0.486-1.006-0.334-1.526   c-0.191-0.334-0.365-0.686-0.531-1.045c-0.658,0.317-0.91-1.037-1.561-1.756c-1.11-0.401-2.165-1.291-3.121-2.341   c-1.208-0.221-1.633-0.787-2.927-1.366c-2.927-1.308-8.099-1.631-11.899-1.17c-4.305,0.522-8.43,1.41-10.73,3.707h-0.78   c-0.06,0.46-0.677,0.362-0.585,0.975c-1.399,0.269-2.699,1.55-3.901,2.731c-0.408,0.399-0.876,0.823-1.171,1.171   c-0.097,0.114,0.094,0.467,0,0.585c-0.196,0.246-0.542,0.496-0.78,0.781c-0.571,0.683-1.49,0.946-1.756,1.951   c0.104,0.741,0.832,0.859,1.561,0.975c-0.375,0.69,0.064,1.068,0.391,1.561c0.249-0.272,0.956-0.085,0.976-0.585   c0.301,0.2,0.593,0.417,0.975,0.78c0.211,0.201,0.534,0.833,0.781,0.977c0.087,0.051,0.242-0.239,0.39-0.195   c0.091,0.025,0.431,0.233,0.976,0.389c1.729,0.498,3.38,1.609,5.461,1.951c0.625,0.104,1.458,0.173,2.147,0.195   c2.536,0.081,5.157,0.381,7.218-0.779c-0.308-0.604-0.593-1.228-0.78-1.952c-0.645,0.122-2.47-0.083-3.707,0   c0.75-1.397,2.899-1.393,3.316-3.122c-1.77-0.956-3.423,2.18-4.876,2.146c-0.457,0.05-0.114,0.857,0,0.976   c-0.771-0.089-1.684-0.075-2.537,0c1.668-1.323,3.913-2.069,5.462-3.512c3.252-0.495,5.565-0.506,9.364-0.78   c-1.066,1.182,0.579,2.698,0.39,5.072c0.483,1.057,1.141,1.937,1.813,2.803c0.182,0.178,0.339,0.387,0.474,0.613   c0.575,0.745,1.133,1.507,1.572,2.388c0.156-0.311,0.321-0.616,0.529-0.899c0.022-0.029,0.045-0.055,0.067-0.084   c-0.724-1.521-1.973-2.519-2.699-4.039c2.757-0.732,6.664-0.193,8.779-2.537c1.676,0.05,2.146-1.105,3.707-1.17   c0.4-0.713-0.088-0.876-0.391-1.366c0.628-0.043,0.826,0.345,1.562,0.195C49.956,46.925,49.185,46.637,49.77,46.508z M9.973,45.533   c0.573-0.087,0.841-1.488,1.366-0.976C10.89,44.769,10.604,46.152,9.973,45.533z M43.526,40.851   c0.084,0.306,0.614,0.167,0.391,0.781C43.44,41.819,43.271,40.754,43.526,40.851z M41.381,41.241c0.006,0.003,0.469,0.903,0,0.585   C41.009,41.574,41.195,41.141,41.381,41.241z M29.508,37.643c0.261,0.05,0.426,0.37,0.349,0.615   c-0.127,0.407-0.419,0.672-0.792,0.767c-0.204,0.26-0.745,0.277-0.921-0.142C27.77,37.994,28.771,37.5,29.508,37.643z    M13.285,42.309c0.001-0.031,0.002-0.062,0.004-0.092c0.026-0.003,0.045,0,0.07-0.002c1.202-1.327,3.037-1.994,4.807-3.119   c-0.435,1.249,0.277,1.24,0.586,2.146c-0.302,1.976-2.348,1.857-3.707,2.34c-0.249-0.768-0.562-1.475-1.686-1.368   C13.333,42.243,13.311,42.278,13.285,42.309c-0.01,0.283-0.011,0.575-0.386,0.493C13.017,42.625,13.149,42.465,13.285,42.309z    M11.729,48.654c0.523-0.647,1.028-1.313,2.34-1.17C13.396,48.399,12.807,48.879,11.729,48.654z M17.386,47.483   c-0.865,0.956-1.732,1.909-3.317,2.146C14.772,48.512,15.984,47.902,17.386,47.483z M17.776,50.409   c-0.614,0.098-0.763-0.425-1.171,0c1.129-1.533,2.897-2.81,4.877-2.926C20.574,48.785,17.982,48.404,17.776,50.409z M22.416,40.041   c-0.63,0.621-1.367,0.289-1.648-0.471c-0.133-0.357,0.149-0.587,0.448-0.599c0.108-0.124,0.271-0.199,0.479-0.141   c0.363,0.101,0.611,0.275,0.799,0.604C22.605,39.629,22.577,39.882,22.416,40.041z M23.56,37.682   c-0.313-0.239-0.349-0.809,0.12-0.914c0.928-0.208,2.088-1.121,3.024-0.476c0.428-0.067,0.741,0.623,0.299,0.952   C26.025,37.971,24.643,38.508,23.56,37.682z M24.799,42.997c1.064-1.158,2.853-0.671,3.901-1.365   c0.537,0.634,1.248,1.093,1.562,1.95C28.83,45.146,25.079,46.272,24.799,42.997z M34.315,37.369   c-0.329,0.222-0.734,0.258-1.145,0.219c-0.124,0.054-0.27,0.059-0.423-0.031c-0.034-0.02-0.07-0.037-0.106-0.053   c-0.229-0.047-0.45-0.102-0.649-0.147c-0.312-0.069-0.464-0.469-0.299-0.734c0.432-0.693,1.212-0.652,1.932-0.56   c0.229,0.029,0.373,0.181,0.437,0.356c0.084,0.027,0.167,0.046,0.253,0.087C34.68,36.676,34.598,37.178,34.315,37.369z    M35.528,39.291c1.722-0.031,3.104,0.277,3.902,1.17c-0.41,2.281-3.422,1.299-4.682,0C34.594,39.657,35.683,40.094,35.528,39.291z    M35.528,50.214c1.128-0.604-0.605-1.556,0-2.146c0.771,0.595,1.336,1.395,2.536,1.561C37.559,50.455,36.471,50.714,35.528,50.214z    M37.479,47.874c0.56,0.806,2.06,0.67,2.536,1.561C39.178,49.764,37.478,48.37,37.479,47.874z M37.284,46.703   c-0.62,0.248-1.876,0.77-2.146-0.194c2.929-1.307,5.229,1.226,7.413,1.951C40.76,49.257,39.102,47.118,37.284,46.703z    M40.405,45.922c1.526,0.414,3.609,0.154,4.292,1.756C43.013,47.347,41.407,46.937,40.405,45.922z"/><path fill-rule="evenodd" clip-rule="evenodd" d="M37.869,37.534C38.612,37.872,36.627,36.97,37.869,37.534L37.869,37.534z"/><path fill-rule="evenodd" clip-rule="evenodd" d="M28.311,49.044c-0.387,0.325-0.248-0.018-0.78,0   c-0.225,2.051,1.965,5.473-0.391,7.022c-0.165,0.816,0.529,0.773,0.781,1.172c1.592-0.848,1.768-3.59,1.366-5.854   c-0.157-0.103-0.317-0.203-0.586-0.195C29.088,50.611,28.507,49.653,28.311,49.044z"/></g><g><path d="M27.547,49.629c0.425-0.033,0.716,1.103,0.8,1.393c0.164,0.56,0.282,1.173,0.245,1.759   c-0.034,0.53,0.952,0.411,0.982-0.061c0.073-1.141-0.346-3.974-1.955-3.849C27.059,48.915,26.891,49.68,27.547,49.629   L27.547,49.629z"/></g><g><path d="M31.988,59.976c2.645-0.008,4.722-1.188,6.301-3.278c-0.303-0.021-0.607-0.04-0.91-0.061   c-0.296,0.624-0.693,1.063-1.292,1.417c-0.563,0.333,0.267,0.563,0.618,0.355c0.713-0.421,1.228-0.961,1.584-1.712   c0.236-0.498-0.725-0.306-0.91-0.061c-1.259,1.668-2.899,2.716-5.033,2.722C31.939,59.359,31.334,59.978,31.988,59.976   L31.988,59.976z"/></g><g><path d="M13.663,40.723c1.195-1.574,3.53-2.678,5.43-3.062c0.366-0.074,0.868-0.458,0.189-0.321   c-2.297,0.464-5.116,1.649-6.57,3.563C12.668,40.96,13.494,40.945,13.663,40.723L13.663,40.723z"/></g><g><path d="M16.808,38.457c-1.047,0.017-1.786,0.439-2.612,1.068c-0.547,0.416,0.293,0.494,0.609,0.325   c0.313-0.167,0.625-0.333,0.938-0.5c-0.203-0.108-0.406-0.217-0.609-0.325c-0.611,0.439-1.25,0.833-1.875,1.25   c-0.501,0.334,0.177,0.545,0.501,0.383c0.083-0.042,0.167-0.083,0.25-0.125c-0.217-0.081-0.433-0.161-0.649-0.242   c-0.104,0.167-0.208,0.333-0.313,0.5c-0.262,0.419,0.605,0.273,0.757,0.184c0.172-0.095,0.339-0.2,0.5-0.313   c-0.232-0.086-0.464-0.172-0.696-0.258c-0.811,0.947-1.009,1.549-0.841,2.787c0.288-0.125,0.576-0.25,0.864-0.375   c-0.083-0.063-0.167-0.125-0.25-0.188c-0.19-0.143-0.866,0.005-0.866,0.3c0,0.104,0,0.208,0,0.313c0.289-0.1,0.577-0.2,0.866-0.3   c-1.745-1.216-3.881,1.907-4.999,2.77c-0.519,0.4,0.292,0.571,0.609,0.325c0.684-0.528,2.754-3.213,3.626-2.605   c0.194,0.135,0.866,0,0.866-0.3c0-0.104,0-0.208,0-0.313c-0.289,0.1-0.577,0.2-0.866,0.3c0.083,0.063,0.167,0.125,0.25,0.188   c0.23,0.172,0.91-0.037,0.864-0.375c-0.144-1.065-0.057-1.501,0.659-2.338c0.375-0.438-0.463-0.412-0.696-0.258   c-0.162,0.112-0.328,0.217-0.5,0.313c0.252,0.061,0.505,0.123,0.757,0.184c0.104-0.167,0.208-0.333,0.313-0.5   c0.229-0.365-0.488-0.322-0.649-0.242c-0.083,0.042-0.167,0.083-0.25,0.125c0.167,0.127,0.334,0.255,0.501,0.383   c0.626-0.417,1.265-0.811,1.875-1.25c0.557-0.4-0.294-0.494-0.609-0.325c-0.313,0.167-0.625,0.333-0.938,0.5   c0.203,0.108,0.406,0.217,0.609,0.325c0.468-0.404,1.014-0.673,1.638-0.807C16.827,39.037,17.46,38.446,16.808,38.457   L16.808,38.457z"/></g><g><path d="M9.619,43.823c-0.717,1.102-1.461,2.185-2.313,3.188c0.309-0.047,0.618-0.093,0.927-0.14   c-0.048-0.773,0.833-1.599,1.284-2.156c0.68-0.84,1.392-1.452,2.3-2.04c0.433-0.279-0.545-0.238-0.759-0.1   c-1.023,0.661-1.779,1.356-2.541,2.298c-0.482,0.596-1.303,1.426-1.25,2.256c0.019,0.306,0.83-0.025,0.927-0.14   c0.852-1.003,1.596-2.085,2.313-3.188C10.724,43.467,9.766,43.596,9.619,43.823L9.619,43.823z"/></g><g><path d="M10.361,43.227c-1.345,1.343-2.689,2.672-3.749,4.259c-0.254,0.38,0.721,0.3,0.901,0.029   c1.026-1.535,2.325-2.818,3.626-4.116C11.543,42.995,10.594,42.995,10.361,43.227L10.361,43.227z"/></g><g><path d="M6.83,47.971c0.546,0,0.746-0.691,0.09-0.691C6.374,47.279,6.174,47.971,6.83,47.971L6.83,47.971z"/></g><g><path d="M6.481,47.822c0.589,0.25,1.013,0.726,1.565,1.035c0.604,0.338,1.347,0.429,1.997,0.652   c0.224,0.077,1.109-0.273,0.788-0.395c-1.154-0.435-2.246-0.942-3.253-1.66c-0.154-0.11-1.049,0.075-0.937,0.299   c1.045,2.09,3.572,2.52,5.589,3.193c0.263-0.131,0.525-0.263,0.788-0.395c-1.305-0.237-2.166-1.284-3.19-2.035   c-0.191-0.14-1.094,0.131-0.907,0.34c0.997,1.11,2.351,1.771,3.81,2.027c0.24,0.042,1.082-0.343,0.788-0.395   c-1.425-0.25-2.719-0.891-3.69-1.973c-0.302,0.113-0.605,0.227-0.907,0.34c1.064,0.78,1.957,1.844,3.31,2.09   c0.193,0.035,1.131-0.28,0.788-0.395c-1.94-0.647-4.405-1.045-5.411-3.057c-0.312,0.1-0.625,0.199-0.937,0.299   c1.045,0.745,2.175,1.263,3.372,1.715c0.263-0.131,0.525-0.263,0.788-0.395c-0.725-0.249-1.474-0.371-2.15-0.75   c-0.505-0.283-0.867-0.707-1.412-0.938C7.044,47.333,6.164,47.688,6.481,47.822L6.481,47.822z"/></g><g><path d="M70.229,50.287c-1.094-0.388-2.183,0.209-2.851,1.089c-1.128,1.485-1.217,3.25-1.301,5.055   c-0.02,0.433,0.892,0.215,0.969-0.111c0.319-1.358,0.938-5.618,2.974-5.231c0.328,0.063,1.143-0.445,0.584-0.551   c-3.224-0.612-3.992,3.623-4.526,5.894c0.323-0.037,0.646-0.074,0.969-0.111c0.051-1.093,0.096-2.165,0.369-3.229   c0.211-0.819,1.071-2.663,2.229-2.252C69.971,50.953,70.777,50.481,70.229,50.287L70.229,50.287z"/></g><g><path d="M66.211,53.896c-0.914,1.557-0.604,3.452,0.056,5.046c0.099,0.237,1.042-0.077,0.967-0.26   c-0.648-1.566-0.97-3.421-0.069-4.954C67.238,53.601,66.354,53.654,66.211,53.896L66.211,53.896z"/></g></svg>