<svg xmlns="http://www.w3.org/2000/svg" xmlns:xlink="http://www.w3.org/1999/xlink" height="300px" width="300px" fill="#FFFFFF" viewBox="0 0 16 16" version="1.1" x="0px" y="0px"><title>svg/plant_033-mushroom-weed-nature-grass-park-green</title><desc>Created with Sketch.</desc><g stroke="none" stroke-width="1" fill="none" fill-rule="evenodd"><g transform="translate(-48.000000, -72.000000)" fill="#FFFFFF"><g transform="translate(49.000000, 72.000000)"><path d="M2,15.5006155 C2,15.7838736 1.77614237,16 1.5,16 C1.23193359,16 1,15.776418 1,15.5006155 L1,8 L2,8 L2,15.5006155 Z"/><path d="M3,7.5 C3,8.32842712 0,8.32842712 0,7.5 C0,6.67157288 0.671572875,6 1.5,6 C2.32842712,6 3,6.67157288 3,7.5 Z"/><path d="M8,15.5006155 C8,15.7838736 7.77614237,16 7.5,16 C7.23193359,16 7,15.776418 7,15.5006155 L7,10 L8,10 L8,15.5006155 Z"/><path d="M9,9.5 C9,10.3284271 6,10.3284271 6,9.5 C6,8.67157288 6.67157288,8 7.5,8 C8.32842712,8 9,8.67157288 9,9.5 Z"/><path d="M14,15.5006155 C14,15.7838736 13.7761424,16 13.5,16 C13.2319336,16 13,15.776418 13,15.5006155 L13,8 L14,8 L14,15.5006155 Z"/><path d="M15,7.5 C15,8.32842712 12,8.32842712 12,7.5 C12,6.67157288 12.6715729,6 13.5,6 C14.3284271,6 15,6.67157288 15,7.5 Z"/><path d="M5,15.5006155 C5,15.7838736 4.77614237,16 4.5,16 C4.23193359,16 4,15.776418 4,15.5006155 L4,2 L5,2 L5,15.5006155 Z"/><path d="M6,1.5 C6,2.32842712 3,2.32842712 3,1.5 C3,0.671572875 3.67157288,0 4.5,0 C5.32842712,0 6,0.671572875 6,1.5 Z"/><path d="M11,15.5006155 C11,15.7838736 10.7761424,16 10.5,16 C10.2319336,16 10,15.776418 10,15.5006155 L10,5 L11,5 L11,15.5006155 Z"/><path d="M12,4.5 C12,5.32842712 9,5.32842712 9,4.5 C9,3.67157288 9.67157288,3 10.5,3 C11.3284271,3 12,3.67157288 12,4.5 Z"/></g></g></g></svg>