<svg xmlns="http://www.w3.org/2000/svg" width="600" height="400"><path d="M282,165L442,248L442,168Z" fill="rgb(211,29,105)" stroke="rgb(211,29,105)" stroke-width="1.51"/><path d="M442,248L520,214L442,168Z" fill="rgb(192,19,110)" stroke="rgb(192,19,110)" stroke-width="1.51"/><path d="M282,165L205,316L442,248Z" fill="rgb(214,28,105)" stroke="rgb(214,28,105)" stroke-width="1.51"/><path d="M442,248L539,483L520,214Z" fill="rgb(153,5,119)" stroke="rgb(153,5,119)" stroke-width="1.51"/><path d="M205,316L406,403L442,248Z" fill="rgb(181,15,112)" stroke="rgb(181,15,112)" stroke-width="1.51"/><path d="M442,168L339,-73L282,165Z" fill="rgb(218,69,86)" stroke="rgb(218,69,86)" stroke-width="1.51"/><path d="M520,214L540,71L442,168Z" fill="rgb(189,41,104)" stroke="rgb(189,41,104)" stroke-width="1.51"/><path d="M205,316L230,411L406,403Z" fill="rgb(175,21,112)" stroke="rgb(175,21,112)" stroke-width="1.51"/><path d="M282,165L86,114L205,316Z" fill="rgb(229,62,89)" stroke="rgb(229,62,89)" stroke-width="1.51"/><path d="M339,-73L160,30L282,165Z" fill="rgb(228,90,70)" stroke="rgb(228,90,70)" stroke-width="1.51"/><path d="M540,71L339,-73L442,168Z" fill="rgb(202,71,86)" stroke="rgb(202,71,86)" stroke-width="1.51"/><path d="M520,214L650,185L540,71Z" fill="rgb(175,34,108)" stroke="rgb(175,34,108)" stroke-width="1.51"/><path d="M688,263L650,185L520,214Z" fill="rgb(162,7,117)" stroke="rgb(162,7,117)" stroke-width="1.51"/><path d="M160,30L86,114L282,165Z" fill="rgb(229,89,71)" stroke="rgb(229,89,71)" stroke-width="1.51"/><path d="M205,316L83,399L230,411Z" fill="rgb(177,47,101)" stroke="rgb(177,47,101)" stroke-width="1.51"/><path d="M406,403L539,483L442,248Z" fill="rgb(140,2,121)" stroke="rgb(140,2,121)" stroke-width="1.51"/><path d="M318,583L539,483L406,403Z" fill="rgb(142,3,121)" stroke="rgb(142,3,121)" stroke-width="1.51"/><path d="M540,71L571,-48L339,-73Z" fill="rgb(193,80,79)" stroke="rgb(193,80,79)" stroke-width="1.51"/><path d="M701,-8L571,-48L540,71Z" fill="rgb(170,71,86)" stroke="rgb(170,71,86)" stroke-width="1.51"/><path d="M650,185L701,-8L540,71Z" fill="rgb(170,54,98)" stroke="rgb(170,54,98)" stroke-width="1.51"/><path d="M539,483L688,263L520,214Z" fill="rgb(133,2,123)" stroke="rgb(133,2,123)" stroke-width="1.51"/><path d="M86,114L50,331L205,316Z" fill="rgb(214,70,86)" stroke="rgb(214,70,86)" stroke-width="1.51"/><path d="M50,331L83,399L205,316Z" fill="rgb(186,60,94)" stroke="rgb(186,60,94)" stroke-width="1.51"/><path d="M230,411L318,583L406,403Z" fill="rgb(164,8,116)" stroke="rgb(164,8,116)" stroke-width="1.51"/><path d="M339,-73L252,-115L160,30Z" fill="rgb(228,100,60)" stroke="rgb(228,100,60)" stroke-width="1.51"/><path d="M160,30L98,-67L86,114Z" fill="rgb(227,113,45)" stroke="rgb(227,113,45)" stroke-width="1.51"/><path d="M361,-207L252,-115L339,-73Z" fill="rgb(225,92,68)" stroke="rgb(225,92,68)" stroke-width="1.51"/><path d="M192,564L318,583L230,411Z" fill="rgb(169,30,110)" stroke="rgb(169,30,110)" stroke-width="1.51"/><path d="M86,114L-23,318L50,331Z" fill="rgb(212,82,77)" stroke="rgb(212,82,77)" stroke-width="1.51"/><path d="M142,-117L98,-67L160,30Z" fill="rgb(226,115,41)" stroke="rgb(226,115,41)" stroke-width="1.51"/><path d="M252,-115L142,-117L160,30Z" fill="rgb(227,109,50)" stroke="rgb(227,109,50)" stroke-width="1.51"/><path d="M83,399L192,564L230,411Z" fill="rgb(170,46,102)" stroke="rgb(170,46,102)" stroke-width="1.51"/><path d="M83,399L41,526L192,564Z" fill="rgb(170,57,96)" stroke="rgb(170,57,96)" stroke-width="1.51"/><path d="M50,331L-54,403L83,399Z" fill="rgb(177,71,86)" stroke="rgb(177,71,86)" stroke-width="1.51"/><path d="M-79,74L-23,318L86,114Z" fill="rgb(228,100,61)" stroke="rgb(228,100,61)" stroke-width="1.51"/><path d="M783,142L701,-8L650,185Z" fill="rgb(169,48,102)" stroke="rgb(169,48,102)" stroke-width="1.51"/><path d="M252,-115L361,-207L142,-117Z" fill="rgb(228,100,61)" stroke="rgb(228,100,61)" stroke-width="1.51"/><path d="M571,-48L361,-207L339,-73Z" fill="rgb(204,84,75)" stroke="rgb(204,84,75)" stroke-width="1.51"/><path d="M577,-200L361,-207L571,-48Z" fill="rgb(189,78,80)" stroke="rgb(189,78,80)" stroke-width="1.51"/><path d="M688,263L783,142L650,185Z" fill="rgb(168,12,115)" stroke="rgb(168,12,115)" stroke-width="1.51"/><path d="M729,410L768,295L688,263Z" fill="rgb(128,1,123)" stroke="rgb(128,1,123)" stroke-width="1.51"/><path d="M539,483L729,410L688,263Z" fill="rgb(106,0,127)" stroke="rgb(106,0,127)" stroke-width="1.51"/><path d="M704,615L729,410L539,483Z" fill="rgb(100,0,128)" stroke="rgb(100,0,128)" stroke-width="1.51"/><path d="M768,295L783,142L688,263Z" fill="rgb(157,6,118)" stroke="rgb(157,6,118)" stroke-width="1.51"/><path d="M318,583L534,611L539,483Z" fill="rgb(132,1,123)" stroke="rgb(132,1,123)" stroke-width="1.51"/><path d="M-54,403L41,526L83,399Z" fill="rgb(170,69,88)" stroke="rgb(170,69,88)" stroke-width="1.51"/><path d="M-23,318L-54,403L50,331Z" fill="rgb(184,77,82)" stroke="rgb(184,77,82)" stroke-width="1.51"/><path d="M-175,391L-54,403L-23,318Z" fill="rgb(179,75,83)" stroke="rgb(179,75,83)" stroke-width="1.51"/><path d="M98,-67L-79,74L86,114Z" fill="rgb(226,120,34)" stroke="rgb(226,120,34)" stroke-width="1.51"/><path d="M-140,-87L-79,74L98,-67Z" fill="rgb(224,131,0)" stroke="rgb(224,131,0)" stroke-width="1.51"/><path d="M639,-217L577,-200L571,-48Z" fill="rgb(171,72,86)" stroke="rgb(171,72,86)" stroke-width="1.51"/><path d="M701,-8L639,-217L571,-48Z" fill="rgb(170,72,86)" stroke="rgb(170,72,86)" stroke-width="1.51"/><path d="M577,-200L639,-217L361,-207Z" fill="rgb(184,77,82)" stroke="rgb(184,77,82)" stroke-width="1.51"/><path d="M857,-199L639,-217L701,-8Z" fill="rgb(170,72,86)" stroke="rgb(170,72,86)" stroke-width="1.51"/><path d="M887,457L839,9L783,142Z" fill="rgb(167,9,115)" stroke="rgb(167,9,115)" stroke-width="1.51"/><path d="M783,142L839,9L701,-8Z" fill="rgb(170,62,93)" stroke="rgb(170,62,93)" stroke-width="1.51"/><path d="M534,611L704,615L539,483Z" fill="rgb(102,0,128)" stroke="rgb(102,0,128)" stroke-width="1.51"/><path d="M729,410L887,457L768,295Z" fill="rgb(105,0,127)" stroke="rgb(105,0,127)" stroke-width="1.51"/><path d="M768,295L887,457L783,142Z" fill="rgb(136,2,122)" stroke="rgb(136,2,122)" stroke-width="1.51"/><path d="M-54,403L-106,563L41,526Z" fill="rgb(170,72,86)" stroke="rgb(170,72,86)" stroke-width="1.51"/><path d="M-257,235L-175,391L-23,318Z" fill="rgb(195,81,78)" stroke="rgb(195,81,78)" stroke-width="1.51"/><path d="M-79,74L-257,235L-23,318Z" fill="rgb(226,92,68)" stroke="rgb(226,92,68)" stroke-width="1.51"/><path d="M-143,-194L-140,-87L98,-67Z" fill="rgb(224,131,0)" stroke="rgb(224,131,0)" stroke-width="1.51"/><path d="M-143,-194L98,-67L142,-117Z" fill="rgb(225,127,17)" stroke="rgb(225,127,17)" stroke-width="1.51"/><path d="M704,615L887,457L729,410Z" fill="rgb(100,0,128)" stroke="rgb(100,0,128)" stroke-width="1.51"/><path d="M-175,391L-106,563L-54,403Z" fill="rgb(170,72,86)" stroke="rgb(170,72,86)" stroke-width="1.51"/><path d="M41,526L-106,563L192,564Z" fill="rgb(170,66,90)" stroke="rgb(170,66,90)" stroke-width="1.51"/><path d="M192,564L-216,605L318,583Z" fill="rgb(170,58,96)" stroke="rgb(170,58,96)" stroke-width="1.51"/><path d="M318,583L-216,605L534,611Z" fill="rgb(169,38,107)" stroke="rgb(169,38,107)" stroke-width="1.51"/><path d="M-140,-87L-188,-35L-79,74Z" fill="rgb(224,131,0)" stroke="rgb(224,131,0)" stroke-width="1.51"/><path d="M-175,391L-216,605L-106,563Z" fill="rgb(170,72,86)" stroke="rgb(170,72,86)" stroke-width="1.51"/><path d="M-260,117L-257,235L-79,74Z" fill="rgb(227,105,55)" stroke="rgb(227,105,55)" stroke-width="1.51"/><path d="M-188,-35L-260,117L-79,74Z" fill="rgb(226,122,30)" stroke="rgb(226,122,30)" stroke-width="1.51"/><path d="M839,9L857,-199L701,-8Z" fill="rgb(170,72,86)" stroke="rgb(170,72,86)" stroke-width="1.51"/><path d="M887,457L857,-199L839,9Z" fill="rgb(170,52,99)" stroke="rgb(170,52,99)" stroke-width="1.51"/><path d="M-188,-35L-180,-201L-260,117Z" fill="rgb(224,131,0)" stroke="rgb(224,131,0)" stroke-width="1.51"/><path d="M-140,-87L-180,-201L-188,-35Z" fill="rgb(224,131,0)" stroke="rgb(224,131,0)" stroke-width="1.51"/><path d="M361,-207L-143,-194L142,-117Z" fill="rgb(226,117,39)" stroke="rgb(226,117,39)" stroke-width="1.51"/><path d="M-180,-201L-143,-194L361,-207Z" fill="rgb(224,130,7)" stroke="rgb(224,130,7)" stroke-width="1.51"/><path d="M704,615L868,611L887,457Z" fill="rgb(100,0,128)" stroke="rgb(100,0,128)" stroke-width="1.51"/><path d="M-143,-194L-180,-201L-140,-87Z" fill="rgb(224,131,0)" stroke="rgb(224,131,0)" stroke-width="1.51"/><path d="M639,-217L-180,-201L361,-207Z" fill="rgb(228,97,63)" stroke="rgb(228,97,63)" stroke-width="1.51"/><path d="M-257,235L-216,605L-175,391Z" fill="rgb(170,72,86)" stroke="rgb(170,72,86)" stroke-width="1.51"/><path d="M-106,563L-216,605L192,564Z" fill="rgb(170,72,86)" stroke="rgb(170,72,86)" stroke-width="1.51"/><path d="M534,611L-216,605L704,615Z" fill="rgb(160,7,117)" stroke="rgb(160,7,117)" stroke-width="1.51"/></svg>